<?xml version="1.0" encoding="utf-8"?>
<!-- Generator: Adobe Illustrator 19.0.0, SVG Export Plug-In . SVG Version: 6.00 Build 0)  -->
<svg version="1.1" id="fc836297-f37e-43a2-86b4-5406f4a63596"
	 xmlns="http://www.w3.org/2000/svg" xmlns:xlink="http://www.w3.org/1999/xlink" x="0px" y="0px" viewBox="85 -89.1 1130.1 738.1"
	 style="enable-background:new 85 -89.1 1130.1 738.1;" xml:space="preserve">
<style type="text/css">
	.st0{opacity:0.1;fill:#078AA7;enable-background:new    ;}
	.st1{fill:#565661;}
	.st2{opacity:0.1;enable-background:new    ;}
	.st3{fill:#BCBEC9;}
	.st4{fill:#EFEFF0;}
	.st5{fill:#FFFFFF;}
	.st6{fill:url(#SVGID_1_);}
	.st7{fill:#A26565;}
	.st8{fill:#525B60;}
	.st9{opacity:5.000000e-002;fill:none;stroke:#525B60;stroke-miterlimit:10;enable-background:new    ;}
	.st10{fill:#36454C;}
	.st11{fill:#064163;}
	.st12{fill:#476572;}
	.st13{opacity:0.1;}
	.st14{fill:#454B69;}
	.st15{fill:#A1616A;}
	.st16{fill:#464353;}
	.st17{opacity:0.1;fill:#EB5D1E;enable-background:new    ;}
	.st18{fill:#535461;}
	.st19{fill:#9D9CB5;}
	.st20{fill:#078AA7;}
	.st21{fill:none;stroke:#535461;stroke-width:2;stroke-miterlimit:10;}
	.st22{fill:#DFE6F5;}
	.st23{fill:#474157;}
	.st24{fill:#3CAAAF;}
	.st25{fill:#CAE8ED;}
	.st26{fill:#EDEDF4;}
</style>
<title>pair programming</title>
<path class="st0" d="M669.5,43.6c-71.4,12.1-142.6,6.9-211.2-0.6s-137-17.3-208.4-14.4c-45.9,1.9-97.1,11-129.1,37.4
	C89.9,91.5,85.1,125.8,85,156.8c-0.1,23.3,1.9,47.4,18.5,66c11.5,12.9,29.1,22.1,42.5,34c46.3,41.3,32.2,106.3,1.8,161.6
	c-14.3,25.9-31.7,51.5-41.4,78s-11,55,6.4,76.7c17.2,21.5,50.5,33.6,85.3,39.8c70.5,12.7,149.1,4.8,225.2-5.9
	c168.3-23.8,334.8-60.9,501-98c61.5-13.7,123.3-27.5,182.5-47.2c32.9-11,66.4-24.7,87.7-46c27-27,27.7-63.9,1.7-86
	c-43.7-37-142.5-28.8-176.3-71.1c-18.6-23.3-10.5-54.9,4.3-82.9c31.7-59.9,93-119.1,85.1-178.9c-5.5-41-47.3-74.9-103.3-83.8
	c-58.7-9.3-134.2,8.3-168,49.6C803,5.3,732.5,32.9,669.5,43.6z"/>
<rect x="445" y="270.1" class="st1" width="283.4" height="65.6"/>
<rect x="445" y="270.1" class="st2" width="283.4" height="65.6"/>
<polygon class="st3" points="478.9,337.9 480.9,513.1 453.6,581.9 451.5,337.9 "/>
<polygon class="st1" points="448,282.7 723.9,284.4 723.9,333.2 448,333.2 "/>
<polygon class="st3" points="700.3,337.9 723.9,341.2 723.9,579.3 700.3,506.5 "/>
<rect x="732.9" y="272.7" class="st4" width="133" height="282.6"/>
<rect x="743.5" y="280.6" class="st1" width="111.7" height="217.2"/>
<rect x="743.5" y="280.6" class="st2" width="111.7" height="217.2"/>
<rect x="743.5" y="285" class="st1" width="111.7" height="48.2"/>
<rect x="743.5" y="337.9" class="st1" width="111.7" height="102.4"/>
<rect x="743.5" y="446.6" class="st1" width="111.7" height="102.4"/>
<rect x="743.5" y="446.6" class="st2" width="111.7" height="102.4"/>
<ellipse class="st1" cx="748.2" cy="564.5" rx="7.2" ry="9.2"/>
<ellipse class="st1" cx="848.1" cy="565" rx="7.2" ry="9.2"/>
<polygon class="st4" points="444,581.9 453.6,581.9 451,275.2 436.4,275.2 "/>
<polygon class="st4" points="723.9,272.7 723.9,579.3 732.9,579.3 732.9,275.2 "/>
<polygon class="st4" points="451.5,330.2 451.5,341.2 723.9,341.2 723.9,333.2 "/>
<polygon class="st5" points="469.9,252.1 815.4,252.1 865.6,268.7 865.6,278.4 434.7,275.1 434.7,265.3 "/>
<polygon class="st3" points="434.7,265.3 865.6,268.7 865.6,278.4 434.7,275.1 "/>
<linearGradient id="SVGID_1_" gradientUnits="userSpaceOnUse" x1="506.41" y1="100.195" x2="508.73" y2="100.195" gradientTransform="matrix(1 0 0 -1 -34.96 478.79)">
	<stop  offset="0" style="stop-color:#808080;stop-opacity:0.25"/>
	<stop  offset="0.54" style="stop-color:#808080;stop-opacity:0.12"/>
	<stop  offset="1" style="stop-color:#808080;stop-opacity:0.1"/>
</linearGradient>
<path class="st6" d="M473.7,379.6l-2-0.3c0-0.1,0-0.2,0-0.3c-0.1-0.5-0.1-0.9-0.2-1.4c0.8,0.7,1.6,1.3,2.3,2H473.7z"/>
<path class="st7" d="M430.3,534c1.3-0.3,2.6-0.5,3.9-0.7c9.1-1.3,18.3,0.1,26.6,3.9c-0.8,6.2-1.7,12.6,0.1,18.5
	c1.2,4.2,3.7,8,4.3,12.4c2.7,0.5,4.9,2.4,5.8,5.1c0.4,1.1,0.6,2.4,0.6,3.6c0,1.5-0.2,3-0.6,4.4c-0.3,2.4-2.4,4.2-4.8,4
	c-7.7,0.9-15.3-2.2-22.5-5.2l-14-5.8c-1.6-0.7-3.3-1.4-4.9-2.2c-3-1.6-5.6-3.8-7.8-6.4c-0.5-0.5-0.8-1-0.9-1.7
	c-0.3-1.8,1.8-2.8,3.1-4c0.4-0.4,0.7-0.8,1-1.2c1.5-2.3,1.7-5.6,2.6-8.3c2.2-6.5,9-10.8,11.4-17.2c0.1-0.3,0.3-0.7,0.4-1.1"/>
<path class="st2" d="M471.5,576.7c0,1.5-0.2,3-0.6,4.4c-0.3,2.4-2.4,4.2-4.8,4c-7.7,0.9-15.3-2.2-22.5-5.2l-14-5.8
	c-1.6-0.7-3.3-1.4-4.9-2.2c-3-1.6-5.6-3.8-7.8-6.4c-0.5-0.5-0.8-1-0.9-1.7c-0.3-1.8,1.8-2.8,3.1-4c0.4-0.4,0.7-0.8,1-1.2
	c3.9,0.8,8.6,3.3,11.6,4.2c3,0.8,5.8,2,8.4,3.5c3.7,2.4,6.3,6,9.5,9s7.1,5.7,11.5,5.4c2.3-0.3,4.5-1.1,6.5-2.3L471.5,576.7z"/>
<path class="st8" d="M455.1,434.6c0.5,1.9-0.1,3.9-1.7,5c-1.3,0.8-3,0.7-4.3,1.6c-1.6,1.1-1.8,3.4-2.1,5.3c-1,6.7-4.3,12.7-7.1,18.8
	s-5.2,12.8-4.2,19.5c0.7,4.5,2.9,9.3,0.9,13.4c-0.5,1-1.3,1.9-1.9,2.9c-2.9,4.8-1.2,10.8-1.3,16.3c0,0.6-0.1,1.2-0.4,1.8
	c-0.4,0.5-1,0.9-1.6,1.2c-2.1,1.5-3.3,3.9-3.4,6.4c-0.1,2.5,0.2,5,0.9,7.5c0.1,1,0.5,1.9,1.2,2.6c0.8,0.5,1.7,0.8,2.7,0.8
	c6.3,0.5,12.4,2,18.3,4.4c3.8,1.6,7.5,3.6,11.5,4.3c0.8,0.2,1.6,0.2,2.4-0.3c0.5-0.5,0.9-1.1,1-1.7c1.5-5.1,3.1-10.4,2.6-15.7
	c-0.2-2.3-0.8-4.5-1-6.8c-0.7-9,5.4-17.1,7.3-26c0.9-4,0.9-8.1,1.5-12.2c1.7-11.1,7.8-21,10.1-32c0.3-2,0.8-4,1.5-6
	c1.8-4.2,5.8-7.7,5.9-12.3c0.1-1-0.2-2-0.8-2.9c-0.9-1-2.2-1.7-3.6-2c-5.4-1.5-11-2.6-16.5-3.3c-2.6-0.5-5.2-0.7-7.8-0.5
	c-3.4,0.4-6.6,1.5-9.5,3.4C451.8,430.6,454.3,431.2,455.1,434.6z"/>
<path class="st9" d="M455.1,434.6c0.5,1.9-0.1,3.9-1.7,5c-1.3,0.8-3,0.7-4.3,1.6c-1.6,1.1-1.8,3.4-2.1,5.3c-1,6.7-4.3,12.7-7.1,18.8
	s-5.2,12.8-4.2,19.5c0.7,4.5,2.9,9.3,0.9,13.4c-0.5,1-1.3,1.9-1.9,2.9c-2.9,4.8-1.2,10.8-1.3,16.3c0,0.6-0.1,1.2-0.4,1.8
	c-0.4,0.5-1,0.9-1.6,1.2c-2.1,1.5-3.3,3.9-3.4,6.4c-0.1,2.5,0.2,5,0.9,7.5c0.1,1,0.5,1.9,1.2,2.6c0.8,0.5,1.7,0.8,2.7,0.8
	c6.3,0.5,12.4,2,18.3,4.4c3.8,1.6,7.5,3.6,11.5,4.3c0.8,0.2,1.6,0.2,2.4-0.3c0.5-0.5,0.9-1.1,1-1.7c1.5-5.1,3.1-10.4,2.6-15.7
	c-0.2-2.3-0.8-4.5-1-6.8c-0.7-9,5.4-17.1,7.3-26c0.9-4,0.9-8.1,1.5-12.2c1.7-11.1,7.8-21,10.1-32c0.3-2,0.8-4,1.5-6
	c1.8-4.2,5.8-7.7,5.9-12.3c0.1-1-0.2-2-0.8-2.9c-0.9-1-2.2-1.7-3.6-2c-5.4-1.5-11-2.6-16.5-3.3c-2.6-0.5-5.2-0.7-7.8-0.5
	c-3.4,0.4-6.6,1.5-9.5,3.4C451.8,430.6,454.3,431.2,455.1,434.6z"/>
<polygon class="st1" points="435.5,585.3 427,585.3 421.4,470.7 421,464.2 428.3,461.6 428.8,468.5 "/>
<polygon class="st2" points="428.8,468.5 421.4,470.7 421,464.2 428.3,461.6 "/>
<polygon class="st10" points="542.6,609.6 528.5,611.3 463.7,464.2 446.2,462.9 415.5,471.8 409.5,647 395.5,647 401,465.5 
	367.3,466.3 307.2,616 294.4,616 357.6,441.1 360.1,434.3 454.3,431.1 477.8,444.3 478.1,445 "/>
<path class="st2" d="M478.1,445c-20.3,6.1-41.3,12.8-41.3,12.8s-19.2,6.7-27.3,0c-1-0.8-2.2-1.4-3.4-1.9c1.1,0.8,2.2,1.4,3.4,1.9
	l-51.9-16.7l2.4-6.7l94.2-3.2l23.5,13.2L478.1,445z"/>
<path class="st5" d="M382.3,416l38.4-8.5c0,0,91.7,17.1,98.5,23.9c0,0-73.3,14.9-81.4,20S381.4,462,382.3,416z"/>
<path class="st11" d="M365.8,320.1c-3,9.5-11.2,18.1-21.2,18.5c-0.7,0.1-1.5,0-2.1-0.4c-1.3-0.8-1.3-2.6-0.8-4s1.4-2.6,1.5-4.1
	c0-0.3,0-0.6-0.1-0.9c-0.3-1.2-1.2-2.3-2.4-2c1.6-1.3,2-3.6,0.9-5.3c-0.5-0.5-0.9-1.1-1.2-1.6c-0.8-1.7,0.5-3.6,1-5.4
	c1.1-4-1.7-8-1.9-12.2c-0.2-3.7,1.7-7.2,2.2-10.9c0.8-6-2.2-11.8-2.6-17.7c-0.2-4.2,0.8-8.3,1.9-12.4c1-3.6,2.1-7.2,2.2-11
	c0-2.7-0.5-5.4-0.6-8.1c-0.2-2.5,0.2-5,1.3-7.2c0.7-1.3,1.9-2.3,3.3-2.8c3.3-1.1,5.4,0.6,5.9,3.7c0.8,5.3,0.3,10.7,1.4,16
	c1,5,2.4,9.8,4.4,14.5c1.8,4.2,3.9,8.3,5.3,12.7c1,3.6,1.8,7.3,2.2,11C367.7,300.3,368.8,310.6,365.8,320.1z"/>
<path class="st7" d="M593.5,562.1c-2.6,3.6-6.5,5.9-10.9,6.4c-4.3,0.5-8.8-0.5-13.1,0.6c-1.3,0.2-2.5,1.1-3,2.3
	c-0.1,0.8-0.2,1.6-0.2,2.5c-0.5,2.7-4,3.3-6.7,3.3l-11.3-0.1c-2.3,0-4.9-0.1-6.6-1.8c-1.7-1.8-1.7-4.6-0.1-6.5
	c0.3-0.4,0.8-0.8,1.3-1c-1.4-0.5-2.5-1.7-2.7-3.2c-0.2-1.5-0.1-3,0.2-4.4c0-4.2,1-11.2,3.9-14.5c3.6-4.1,9.9-9.3,15.3-10.4
	c3.7-0.7,7.6,0.4,10.4,2.9c2.6,2.4,4.5,6.2,8,6.6c1.9,0.2,3.8-0.7,5.7-1c4.4-0.6,8.8,1.7,10.8,5.7c0.5,1,0.8,2,1,3.1
	C596.1,556.1,595.3,559.4,593.5,562.1z"/>
<path class="st2" d="M593.5,562.1c-2.6,3.6-6.5,5.9-10.9,6.4c-4.3,0.5-8.8-0.5-13.1,0.6c-1.3,0.2-2.5,1.1-3,2.3
	c-0.1,0.8-0.2,1.6-0.2,2.5c-0.5,2.7-4,3.3-6.7,3.3l-11.3-0.1c-2.3,0-4.9-0.1-6.6-1.8c-1.7-1.8-1.7-4.6-0.1-6.5
	c6.5-0.3,12.9,0,19.4-1.3c2.6-0.5,5.2-1.2,7.9-1.6c5.8-0.8,11.9-0.1,17.2-2.6c4.4-2,7.6-6.1,9.4-10.6
	C596,556.1,595.3,559.4,593.5,562.1z"/>
<path class="st8" d="M563.8,546.3c-4,3.1-8.7,5.5-13.7,5.8c-5,0.3-10.4-2-12.9-6.4c-3.6-6.4-0.4-15.4-4.8-21.3
	c-1.4-1.8-3.4-3.2-4.8-5c-1.5-1.8-2.3-4.5-1-6.4c-1.6,0.6-3.2-0.9-3.7-2.5c-0.5-1.6-0.2-3.4-0.5-5c-0.7-4.3-5-7.1-7-11
	s-1.8-8.9-2-13.4c-0.5-11.1-4.7-21.8-11.8-30.3c-1.4-1.6-3.1-3.3-5.2-3.2c0.4-3.7-2.1-7.2-5.2-9s-6.9-2.5-10.6-2.8
	c-36.9-3.6-75.4,10.1-110.7-1.5c-9.8-3.2-19.3-8.6-25.3-17c-4.7-6.5-6.6-14.6-5.3-22.5v-0.1c1.4-7.1,5.1-8.8,11.4-12.1
	c7.2-3.8,14.7-6.9,22.4-9.4c15-4.7,31.1-6.4,46.6-2.9c7.2,1.6,14.2,4.3,21.4,5.9c2.9,0.6,5.7,1.1,8.6,1.4c4.5,0.6,9,0.9,13.5,1.5
	c14.5,1.7,28.7,4.9,42.5,9.5c5.1,1.7,10.3,3.7,14.7,6.9c7,5.1,11.7,12.8,13,21.5c0.4,2.9,0.4,6,1.1,8.8c0.6,2.4,1.4,4.7,2.4,7
	c8.5,21.1,15.5,42.9,20.9,65c0.3,1.6,0.9,3.2,1.7,4.7c1.3,2.1,3.5,3.5,4.8,5.5c3,4.9,0.1,11.7,2.8,16.8c0.9,1.8,2.5,3.2,3.4,4.9
	C573.3,535.5,568.9,542.4,563.8,546.3z"/>
<path class="st2" d="M512.7,431.4c1.4-1.1,2.6-2.5,3.6-4c1-1.5,1.4-3.4,1.1-5.2c0.8,4.6-0.7,9.3-3.9,12.7c-2.5,2.6-7.2,5.1-10.9,4.2
	C503.2,436.3,510.4,433.4,512.7,431.4z"/>
<path class="st2" d="M450.2,381.6c-0.6,2.2-2.3,3.9-4.4,4.6c-2.1,0.7-4.4,0.9-6.6,0.8h-2c-26.2-0.6-52.8-6.4-78.4-0.8
	c-3.1,0.6-6.1,1.5-9.1,2.7c-3.7,1.5-7.3,3.5-10.4,6v-0.1c1.4-7.1,5.1-8.8,11.4-12.1c7.2-3.8,14.6-6.9,22.4-9.3
	c15-4.7,31.1-6.4,46.6-2.9c7.2,1.6,14.2,4.3,21.4,5.9c2.9,0.6,5.7,1.1,8.6,1.4C450.3,378.8,450.5,380.2,450.2,381.6z"/>
<path class="st7" d="M450.2,380.2c-0.6,2.2-2.3,3.9-4.4,4.6c-2.1,0.7-4.4,0.9-6.6,0.8h-2c-26.2-0.6-52.8-6.4-78.4-0.8
	c-3.1,0.6-6.1,1.5-9.1,2.7c-3.9,1.6-7.6,3.7-10.9,6.4c-0.8-2.1-1.5-4.2-2.3-6.3c-0.9-2.5,2-3.1,2.6-5.3c0.4-1.5-0.3-3.3-0.6-4.9
	c-0.1-0.4-0.1-0.8-0.2-1.2c-0.2-3.6,1.1-5.7,4.1-7.6c8.8-5.8,19.5-9.8,29.5-12.8c5.3-1.7,10.8-2.8,16.4-3.2c7.9-0.5,15.8,1,23.4,2.8
	c9.4,2.3,18.8,5.4,27.1,10.3c4.1,2.4,8.1,5.4,10.3,9.7C450.1,376.7,450.5,378.4,450.2,380.2z"/>
<path class="st2" d="M365.8,320.1c-3,9.5-11.2,18.1-21.2,18.5c-0.7,0.1-1.5,0-2.1-0.4c-1.3-0.8-1.3-2.6-0.8-4s1.4-2.6,1.5-4.1
	c0-0.3,0-0.6-0.1-0.9c5.3-7.5,10.4-15,12.5-23.8c0.4-1.5,0.5-3.1,0.4-4.7c-0.3-1.8-1.2-3.4-1.7-5.2c-0.9-3.1-0.5-6.3-0.2-9.5
	c1-14-1.3-28.1-6.8-41.1c-1.4-3.1-2.9-6.3-3.4-9.6c0.7-1.3,1.9-2.3,3.3-2.8c3.3-1.1,5.4,0.6,5.9,3.7c0.8,5.3,0.3,10.7,1.4,16
	c1,5,2.4,9.8,4.4,14.5c1.8,4.2,3.9,8.3,5.3,12.7c1,3.6,1.8,7.3,2.2,11C367.7,300.3,368.8,310.6,365.8,320.1z"/>
<path class="st2" d="M450.2,380.2c-0.6,2.2-2.3,3.9-4.4,4.6c-2.1,0.7-4.4,0.9-6.6,0.8h-2c-8.5-5.7-18.8-8.2-29-7
	c-3.3,0.4-6.5,1.2-9.8,0.8c-6.6-0.6-11.9-5.3-17.8-8.4c-13.7-6.7-30.1-4.5-41.4,5.6l-0.6,0.5c-0.1-0.4-0.1-0.8-0.2-1.2
	c-0.2-3.6,1.1-5.7,4.1-7.6c8.8-5.8,19.5-9.8,29.5-12.8c5.3-1.7,10.8-2.8,16.4-3.2c7.9-0.5,15.8,1,23.4,2.8
	c9.4,2.3,18.8,5.4,27.1,10.3c4.1,2.4,8.1,5.4,10.3,9.7C450.1,376.7,450.5,378.4,450.2,380.2z"/>
<path class="st11" d="M472.6,270.6l-0.1,0.4c-2.2,5.8-6.4,10.7-9,16.4c-3.3,7.2-4.1,15.2-4.9,23.1c-0.6,6.8-1.3,13.5-0.8,20.3
	c1.3,16.7,9.4,32.5,11.6,48.9c0.5,3.8,0.7,7.6,0.4,11.4c-0.2,2.4-0.6,5-2.2,6.8s-4.7,2.5-6.4,0.8c0.8-1.5,1.5-2.9,2.3-4.4
	c-4.6-3.5-11.5-1-16.8-3.2c-2.4-1-4.2-2.8-6.2-4.4c-9.1-7.4-20.8-10.8-32.4-9.5c-3.3,0.4-6.5,1.2-9.8,0.9
	c-6.6-0.6-11.9-5.3-17.8-8.4c-13.7-6.7-30.1-4.5-41.4,5.6c-1.4,1.3-3.3,2.8-5,2c-0.7-0.4-1.2-1-1.5-1.7c-6.5-11.2-1.7-25.6,5.3-36.5
	s16.3-21,19.2-33.6c0.4-1.5,0.5-3.1,0.4-4.7c-0.3-1.8-1.2-3.4-1.7-5.2c-0.9-3.1-0.5-6.3-0.2-9.5c1-14-1.3-28.1-6.8-41.1
	c-1.6-3.7-3.5-7.5-3.5-11.6c0-6.4,4.6-11.7,8.4-16.8c4.4-5.9,8-12.4,13.5-17.3c5.2-4.6,12.8-7.4,19.2-5.1c11-2.7,22.3-3.8,33.6-3.3
	c3.9,0.2,7.9,0.6,11.4,2.5c3.7,2,6.3,5.6,9.9,7.7c2.6,1.6,5.7,2.3,8.5,3.4c7.9,3.1,14.4,8.9,18.4,16.4c4,7.8,5,16.7,5.9,25.3
	C474.7,254.4,475.5,262.9,472.6,270.6z"/>
<path class="st2" d="M457.9,330.8c1.3,16.7,9.4,32.5,11.6,48.9c-4.4-3.7-10.4-7.4-11.2-11.7c-0.9-4.6-3.8-10.7-4.3-15.4
	s2.8-10.4-0.6-13.6c-1.7-1.6,2.8-1.1,1.1-2.7c-3.7-3.6-4.6-9.1-4.8-14.3c-0.4-9.1,0.8-18.3-0.9-27.2c-1-5.5-3.1-10.8-4.8-16.1
	c-1.9-6.2-3.3-12.6-4.7-19c-1.4-5.7-2.4-11.4-3-17.3c-0.4-5-0.2-10.3,2-14.9s6.7-8.3,11.8-8.2c16.9,0.2,14,23.2,17.7,33.8
	c1.5,4.2,3.5,8.3,4.3,12.7c0.3,1.7,0.5,3.5,0.5,5.2c-2.2,5.8-6.4,10.7-9,16.4c-3.3,7.2-4.1,15.2-4.9,23.1
	C458,317.2,457.4,324,457.9,330.8z"/>
<path class="st11" d="M468.9,252.8c1.5,4.2,3.5,8.3,4.3,12.7c1.4,7.4-0.7,15.2,1.5,22.3c0.6,1.5,1.1,3.1,1.5,4.7
	c0.4,2.3-0.1,4.6-0.1,6.9c0,3.7,1.2,7.3,2.2,10.9c3.5,12.1,5.8,24.6,7,37.2c0.2,3.4,0.7,6.7,1.6,10c0.4,1.1,0.8,2.2,1.1,3.4
	c0.3,1.5,0.3,3.1,0.2,4.6c-0.3,4.9-0.8,9.8-0.3,14.7s2.3,9.8,6,13.1c-3.3,0.7-6.8,1.4-10,0.4c-4.5-1.5-7.2-6-9.5-10.1
	c-2.9-5.3-13.9-10-15.1-15.9c-0.9-4.6-3.8-10.7-4.3-15.4s2.8-10.4-0.6-13.6c-1.7-1.6,2.8-1.1,1.1-2.7c-3.7-3.6-4.6-9.1-4.8-14.3
	c-0.4-9.1,0.8-18.3-0.9-27.2c-1-5.5-3.1-10.8-4.8-16.1c-1.9-6.2-3.3-12.6-4.7-19c-1.4-5.7-2.4-11.4-3-17.3c-0.4-5-0.2-10.3,2-14.9
	s6.8-8.3,11.8-8.2C468,219.2,465.1,242.2,468.9,252.8z"/>
<path class="st2" d="M420.6,256.7c1.6,1.9,3.6,3.9,6,3.5c-0.4,0.6-1.2,0.8-1.8,0.4c-0.6-0.4-1-0.9-1.3-1.5l-3.4-5.8
	c-0.5-0.8-3.5-5.1-4.3-2.6C415.5,251.8,419.9,255.8,420.6,256.7z"/>
<path class="st2" d="M418.8,271.1c-0.1-1.9-0.9-3.7-2.2-5c-1.2-1.1-2.6-1.9-4.1-2.5c-3.8-1.5-8.2-2.8-12.3-2.6
	c1.5,2.2,6.2,3.5,8.6,4.7C412.2,267.4,415.5,269.2,418.8,271.1z"/>
<path class="st2" d="M429.5,312c-0.7,5.1-4.9,9-9.1,12s-9,5.6-11.8,9.9c-1.9,3-2.8,6.5-4.4,9.6c-1.8,3.5-4.5,6.3-6.6,9.6
	s-3.8,7.1-3.2,11c0,0.4,0.2,0.7,0.5,0.9c0.4,0.2,0.9,0.1,1.3-0.1c4.4-2.3,6.1-7.5,7.9-12c1.9-4.6,4.1-9,6.5-13.3
	c1.1-2,2.3-4.2,4.3-5.3c1.4-0.6,2.8-1.1,4.2-1.5c2-0.9,3.8-2.3,5.2-4.1c5.5-6.5,8.3-14.8,8-23.3c-0.1-1.8-0.2-10.4-2.9-7.8
	S429.9,308.6,429.5,312z"/>
<path class="st12" d="M436,115.7c8.6,3.8,16,12,15.7,21.4c-0.2,9.8-8.5,19.1-5.6,28.5c1.6,5.5,6.6,9.1,10.5,13.3
	c14.9,15.8,14.9,43.3-0.1,59c-5.7,6-13.1,10.3-19.1,16c-21.3,20.1-22.2,54.9-10.8,81.9c-8.7,1.9-17.7,2.9-26.6,3
	c-4.2,0-9.3-0.7-10.8-4.6c-1.4-3.6,1-8.5-1.8-11.2c-1.3-1.3-3.3-1.4-5-1.7c-11.3-1.8-20.5-10.8-24.7-21.4s-4-22.5-1.6-33.6
	c1.7-8,4.4-16.9,0.4-24.1c-5-9.1-19.4-12.9-19.2-23.2c0.2-8.5,10.2-12.6,15.9-18.9c10.5-11.6,5.5-29.6,5.5-45.3
	c0-13.8,4.8-28,15.1-37.2C389,103.5,418.4,108,436,115.7z"/>
<g class="st13">
	<path d="M358.2,231.7c-4.4-7.9-15.9-11.8-18.6-19.6c-1.3,1.8-2.1,4-2.2,6.3c-0.2,10.4,14.1,14.2,19.2,23.3c1.6,3.2,2.3,6.8,2,10.4
		C360.1,245,361.5,237.8,358.2,231.7z"/>
	<path d="M447.3,152.7c1.8-5.3,4.4-10.5,4.5-16c0-0.6,0-1.2,0-1.8C449.8,140.9,446.7,146.8,447.3,152.7z"/>
	<path d="M359.9,180.6c3.4-10.9,0.5-24.4,0.5-36.4c0-1.5,0.1-2.9,0.2-4.4c-1.2,4.7-1.8,9.5-1.8,14.3
		C358.8,162.7,360.3,172.1,359.9,180.6z"/>
	<path d="M458.2,227.5c-5.7,6-13.1,10.3-19.1,16c-10.8,10.2-16.4,24.1-17.7,38.9c2.6-11,7.8-21.1,16.1-29c6-5.7,13.4-10,19.1-16
		c6.8-7.4,10.8-17,11.1-27.1C466.1,216.8,462.8,222.7,458.2,227.5z"/>
	<path d="M401.7,328.4c-4.2,0-9.3-0.7-10.8-4.6c-1.4-3.6,1-8.5-1.8-11.2c-1.3-1.3-3.3-1.4-5-1.7c-11.3-1.8-20.5-10.8-24.7-21.4
		c-3.1-7.8-3.8-16.4-3-24.8c-0.1,0.3-0.1,0.7-0.2,1c-2.4,11.1-2.6,23.1,1.6,33.7s13.5,19.6,24.7,21.4c1.8,0.3,3.7,0.5,5,1.7
		c2.8,2.7,0.4,7.6,1.8,11.2c1.5,3.9,6.6,4.7,10.8,4.6c9-0.1,17.9-1.1,26.6-3c-1.2-2.9-2.3-5.9-3.2-8.9
		C416.2,327.6,409,328.3,401.7,328.4z"/>
</g>
<path class="st2" d="M434.4,284.8c2.5,1.9,5.1-5.2,3.6-7C437.6,278.2,434,284.5,434.4,284.8z"/>
<path class="st2" d="M445,413.1c2.9-1,6-2,7.9-4.4c1.6-1.9,2.9-9.6-0.5-5.9C449.6,405.9,448.2,410.1,445,413.1z"/>
<path class="st2" d="M474.6,405.1c-0.4,2.4-1,4.8-2.7,6.5c-0.3,0.3-1,0.5-1.1,0.1c1.9-1,3.6-2.2,5.2-3.6c3.4-3.3,3.8-11.6-1.3-13.8
	C474.6,397.9,475.1,401.4,474.6,405.1z"/>
<path class="st8" d="M510.1,390.2c0,0-28.4-11.2-38.6-10s11.6,17.3,11.6,17.3l13.1,8.8c0,0,8-3,8.5-3.2S510.1,390.2,510.1,390.2z"/>
<path class="st1" d="M314.9,270.6c0,0,21.3-12.4,49.5,3s32.8,105.8,32.8,105.8s-11.5,92.1,32.9,71.6c0,0,81-25.2,89.1-19.6
	c0,0,7.7,0-7.7,3.4c-15.4,3.4-74.6,22.2-74.6,22.2s-19.2,6.7-27.3,0s-31.1,0.9-34.1-45.2c-2-29-5.5-57.9-10.7-86.6l-7.9-23.5
	L314.9,270.6z"/>
<path class="st5" d="M312.3,413c0,0,9.4-93.4-6-127.1c-13.4-29.4,38.4-15.6,51.9-11.6c2.1,0.6,3.9,1.9,5.2,3.7
	c8,11.3,36.7,56.3,28.2,116.7c0,0-3.4,53.7,17.9,62.3l-65.7-21.2c-5.3-1.7-10.7-3.2-16.2-4.4C320.7,429.8,309.3,425.3,312.3,413z"/>
<polygon class="st1" points="779.5,587.3 788.1,587.3 793.7,472.7 794,466.2 786.8,463.6 786.3,470.5 "/>
<polygon class="st2" points="786.3,470.5 793.7,472.7 794,466.2 786.8,463.6 "/>
<path class="st7" d="M708.3,543.1c-0.2,1.6-0.6,3.1-1.2,4.6c-0.6,1.9-1.9,3.5-3.7,4.6c-1.2,0.5-2.4,0.7-3.7,0.7
	c-4.7,0.3-9.7,0.2-13.7-2.2c-1.7-1.1-3.3-2.4-4.7-3.9c-9.1-9-17.4-18.9-24.7-29.4c-1.2-1.8-2.5-3.9-2-6c9.5-2.6,18.6-6.8,26.8-12.3
	c1.1-0.9,2.4-1.5,3.8-2c2.3-0.5,4.7-0.6,7.1-0.3c2.3,0.4,2.4,0.4,3.2,3c1.4,4.3,1.2,9,2.8,13.3c1,2.4,2.3,4.7,3.7,6.8
	C706.2,527.1,709.4,535.3,708.3,543.1z"/>
<path class="st2" d="M708.3,543.1c-0.2,1.6-0.6,3.1-1.2,4.6c-0.6,1.9-1.9,3.5-3.7,4.6c-1.2,0.5-2.4,0.7-3.7,0.7
	c-4.7,0.3-9.7,0.2-13.7-2.2c-1.7-1.1-3.3-2.4-4.7-3.9c-9.1-9-17.4-18.9-24.7-29.4c-1.2-1.8-2.5-3.9-2-6c3.1-0.9,6.2-1.9,9.2-3.1
	l0.2,0.1c3.1,2.2,5.3,5.3,7.5,8.4l7,9.8c1.2,1.9,2.7,3.7,4.4,5.3c2.1,1.7,4.4,3,6.8,4.1c3.3,1.6,6.6,3.2,10,4.5
	C701.8,541.5,705.6,541.8,708.3,543.1z"/>
<path class="st14" d="M714.8,436.3c-0.7,1.7-1.5,3.3-2.5,4.8c-9.3,15.6-16.5,32.4-21.3,49.9c-1.4-0.3-2.2,1.6-2.2,3s0,3.2-1.3,3.8
	c-0.4,0.2-0.8,0.2-1.2,0.3c-0.8,0.4-1.1,1.5-1.2,2.4l-1.2,8.7c-0.4,3-0.8,6.3,0.7,8.9c1,1.6,2.3,2.9,3.9,4l19.5,15.4
	c0.8,0.6,1.8,1.3,2.8,1c2.2-0.8,0.3-4.7,2-6.3c1.2-1.1,3-0.3,4.6-0.4c2.1-0.2,3.7-2.1,4.2-4.1c0.4-2.1,0.4-4.2,0.1-6.3
	c-0.1-0.9,0-1.9,0.3-2.8c0.6-0.9,1.4-1.7,2.4-2.3c6.9-5,10.8-13.1,10.5-21.6c-0.2-1.3-0.1-2.6,0.1-3.8c0.4-1.2,1-2.2,1.8-3.2
	c7.1-9.6,13-20,18.9-30.4c3.4-6,6.8-12.1,8-18.8c0.4-0.9-0.1-1.9-1-2.3c-0.2-0.1-0.3-0.1-0.5-0.1c-2.9-0.9-5.9-1.6-8.9-2.1
	c-9.2-1.9-18.1-4.7-27-7.5S717.5,429,714.8,436.3z"/>
<polygon class="st10" points="672.5,611.6 686.6,613.3 751.4,466.2 768.9,464.9 799.6,473.8 805.5,649 819.6,649 814.1,467.5 
	847.8,468.3 907.9,618 920.7,618 857.4,443.1 855,436.3 760.8,433.1 737.3,446.3 737,447 "/>
<path class="st2" d="M737,447c20.3,6.1,41.3,12.8,41.3,12.8s19.2,6.7,27.3,0c1-0.8,2.2-1.4,3.4-1.9c-1.1,0.8-2.2,1.4-3.4,1.9
	l51.9-16.7l-2.4-6.7l-94.2-3.2l-23.5,13.2L737,447z"/>
<path class="st5" d="M832.8,418l-38.4-8.5c0,0-91.7,17.1-98.5,23.9c0,0,73.3,14.9,81.4,20S833.7,464,832.8,418z"/>
<path class="st7" d="M690.4,555.1c-2.3,4.4-8,5.6-13,5.7c-6.9,0.1-13.8-1.1-20.3-3.6c-3.7-1.4-7.3-3.3-11.1-4.3
	c-5.7-1.6-12-1.4-17-4.6c-2.7-1.8-4.8-4.1-6.4-6.9c-0.3-0.5-0.6-1-0.8-1.5c-2.4-4.7-3.5-10.1-2.2-15.1s6.2-10.5,11.8-10.5
	c6.7,0.1,14.6,3.3,21,4.9c8,2,16,4.3,23.1,8.5c5.9,3.6,11.2,8.7,13.9,14.9c0.5,1.2,1,2.4,1.3,3.7
	C691.6,549.2,691.8,552.4,690.4,555.1z"/>
<path class="st2" d="M690.4,555.1c-2.3,4.4-8,5.6-13,5.7c-6.9,0.1-13.8-1.1-20.3-3.6c-3.7-1.4-7.3-3.3-11.1-4.3
	c-5.7-1.6-12-1.4-17-4.6c-2.7-1.8-4.8-4.1-6.4-6.9c-0.3-0.5-0.6-1-0.8-1.5c1,0.1,1.9,0.2,2.4,0.2c6.1,0.6,12,2.8,17.9,4.5
	c8.1,2.3,16.5,3.7,25,3.9c6,0.2,12.3-0.3,17.5-3.2c1.6-1,3.2-1.9,4.9-2.7c0.5,1.2,1,2.4,1.3,3.7
	C691.6,549.2,691.8,552.4,690.4,555.1z"/>
<path class="st8" d="M733.4,364.9c-13-2.1-26.2-2.7-39.4-3.2l-16.1-0.6c-1.1-0.1-2.3,0-3.4,0.4c-0.9,0.6-1.8,1.3-2.7,2
	c-1.6,1.1-3.7,1.2-5.6,1.3c-13.8,0.8-27.6,2.5-41.2,5.3c-7,1.4-14.3,3.3-19.5,8.1c-5.6,5.1-8,12.9-8.2,20.4s1.8,15,3.9,22.2
	c2.7,8.7,4.1,17.8,4.4,26.9c-0.1,2.5,0,5.1,0.3,7.6c0.5,2.4,1.2,4.7,2.1,7l7.4,19.7c0.7,1.7,1.3,3.4,2,5.1s1.4,3,2,4.6
	c0.9,2.2,1.6,4.4,2.3,6.6l4.9,15.4l0.6,2c1.8,5.5,3.6,11.2,6.9,15.9s8.5,8.6,14.3,8.9c1.9-0.1,3.8,0,5.6,0.2
	c1.6,0.4,3.1,0.9,4.6,1.7c4.4,1.8,9,2.7,13.8,2.7c4.3,0,9.2-1.2,11.5-4.9c1.3-2,1.6-4.5,2-6.8c0.6-4.7,1.2-9.7-0.4-14.2
	c-1-2.7-2.7-5-3.8-7.7c-1.6-3.6-2.2-7.6-3.2-11.4c-2.3-8.2-6.9-15.6-13.3-21.2c-2.3-9-3.9-18.2-5-27.4c-0.1-2-0.6-4.1-1.2-6
	c-1.2-3-3.5-5.4-4.5-8.5c-0.9-2.8-0.7-6.1-2.3-8.6c14.1,3.9,28,3,42.6,2.8c4.7,0,9.4-0.3,14-0.8c2.2-0.4,4.4-0.6,6.6-0.7
	c4.5,0,8.8,2,12.9,3.8c11.7,5,24.1,8.9,36.8,9.5c13.2,0.5,26.2-2.5,39-5.6c5.7-1.3,11.5-2.8,16-6.5s7-10.4,4.2-15.5
	c-2.1-3.8-6.5-5.7-10.5-7.3c-11.2-4.4-22.5-8.8-33.4-14.1C763.9,385.9,751.5,367.9,733.4,364.9z"/>
<path class="st15" d="M710.2,319.7c-1.6,3.4-4.2,6.2-6.2,9.4c-3.3,5.3-4.3,11.6-3,17.7c1.4,6.1,5.6,11.1,11.3,13.7
	c2.5,1,5.1,1.6,7.8,1.9c3.5,0.4,7.3,0.5,10.4-1.2c2.3-1.4,4.2-3.4,5.5-5.8c2.7-4.5,4.2-9.6,5.6-14.6c2.6-9.3,4.8-18.9,4.5-28.5
	c-0.1-3.3-0.8-7.1-3.5-9c-1.4-0.8-3-1.3-4.6-1.5l-13.2-2.4c-2.5-0.5-7-2.3-9.2-0.5s-2.4,7.3-2.8,9.8
	C712.2,312.4,711.8,316.2,710.2,319.7z"/>
<path class="st15" d="M870.6,281l-3.5,28.9c-0.7,5.2-1.1,10.4-1.2,15.6c0,2.9,0.1,6.1-1.8,8.3c-0.9,1-2.1,1.7-3.4,2.1
	c-4.2,1.3-8.8,0.1-12.8-1.6c-2.3-1-4.7-2.5-5.8-4.8c-0.6-1.6-0.9-3.3-0.8-5.1c0-17.3,1.6-35.2,10.6-49.9c0.8-1.4,1.9-2.7,3.2-3.7
	c2.5-1.6,5.8-1.1,8.6-0.3c1.7,0.5,6.4,1.1,7.5,2.7S870.8,279,870.6,281z"/>
<circle class="st15" cx="779" cy="140.4" r="36"/>
<path class="st15" d="M769.4,194.1c-0.1,2.8-0.9,5.5-2.2,8c18.4-2.8,36.7-5.9,55-9.4c-6.1-3.1-10.7-8.5-12.8-15
	c-1-3.5-1.5-7.1-1.6-10.7c-0.3-5.7-0.2-11.5,0.3-17.2c-6.4,0.7-12.5,3.1-18.6,5.1c-6.1,2.1-12.4,3.8-18.7,5.2
	c-3,0.7-6.1,1.3-9.2,1.8c-3.6,0.6-5.3,0.6-2.8,3.8C765.6,174.2,770.3,182.8,769.4,194.1z"/>
<path class="st11" d="M780.5,189.3c-4.8,0.7-9.7,1.5-13.5,4.5c-1.4,1.2-2.8,2.6-4.1,4c-7.5,7.3-18.2,10.3-27.3,15.4
	c-1.5,0.7-2.8,1.8-3.9,3c-1,1.4-1.5,3.2-2.6,4.5c-1.2,1.6-3.2,2.6-4.1,4.4s-0.7,3.6-0.8,5.5c-0.2,4.1-1.8,8-3,12
	c-5.5,18.9-2.5,40-10.9,57.9c0.8,2.1,2.4,3.7,4.4,4.6c2.1,0.8,4.3,1.2,6.6,1.4l18.6,2.3c2.7,0.3,5.5,0.6,7.9-0.5
	c-2.2,6.1-3.8,12.5-4.7,18.9c-0.5,3.9-1.2,7.9-2.1,11.7c-2.6,8.8-9,16.1-16.6,21.1c-1,0.5-1.8,1.3-2.3,2.2c-1,2,0.5,4.2,1.5,6.2
	c3,5.7,2.6,12.5,2.6,18.9s0.6,13.5,5.1,18.1c2.7,2.7,6.3,4.2,9.8,5.6l29.1,11.6c4.8,2,9.8,3.7,14.8,5c7.7,1.8,15.6,1.7,23.5,1.3
	c5.2-0.2,10.4-0.6,15.6-1c2.1,0,4.1-0.5,5.9-1.5c1.5-1.2,2.7-2.8,3.5-4.7c4-8.8,5.4-19.1,11.7-26.5c4.3-5.1,11-9.1,11.5-15.8
	c0.2-3.3-1.2-6.5-1.3-9.8c0-4.1,2.1-7.9,2-12c-0.3-6.6-6.5-11.7-7.5-18.2c-2.5-16.6,5.9-33.1,11.1-49.1c0.9-2.9,2.1-6,4.9-7.2
	s6.6-0.6,7.6-3.3c2.5-6.8,3.1-14.7,2.7-21.9c-0.2-4.2-1.7-8.3-1.5-12.4c0.1-2.9,1.1-5.8,1.3-8.7c0.4-4.4-0.8-8.8-2-13.1
	c-0.3-1.5-0.9-3-1.6-4.4c-0.7-1.3-1.6-2.5-2.6-3.6l-4.9-5.8c-2.3-2.7-4.7-5.5-8-6.9c-1.1-2.6-4.5-4.5-6.9-5.9
	c-2.5-1.4-5-2.7-7.6-3.8l-27.5-12.2c-1-0.5-2.1-0.9-3.3-1.1c-1.7-0.1-3.3,0.3-4.9,1C798.2,184.6,789.5,187.9,780.5,189.3z"/>
<path class="st16" d="M751.3,146.7c-1.1-3.7-3.8-7-4.2-10.8c-0.4-3.4,1.1-6.8,2-10.1c0.9-3.3,0.8-7.4-1.8-9.6
	c-0.4-0.4-1-0.7-1.2-1.3c-0.3-1,0.7-1.9,1-2.9c0.6-2-1.9-4.2-1-6.1c0.5-1,1.8-1.4,2.9-1.8c4.3-1.3,8.6-4.1,9.5-8.5
	c3.3,1.4,6.9-1.2,9.5-3.8s5.7-5.5,9.3-4.7l-0.8,1.6c5.5-2,11.4-2,16.9-0.2h-1.7c4.8,0.1,9.5,1.7,13.4,4.5c-0.4,0-0.5,0.6-0.3,1
	c1.4,3.3,5,5,8.5,5.8c2.1,0.5,4.4,0.9,5.9,2.4s1.6,4.6-0.5,5.4c4.1,1.6,8,3.7,11.6,6.3c1,0.7,2.1,1.7,2,3c-0.1,0.6-0.4,1.3-0.6,1.9
	c-0.2,1.1-0.1,2.2,0.2,3.2l1.1,4.6c1.2,5.1,2.2,11.2-1.5,14.9c2.9,5.3,1.9,11.9-2.4,16.2c1.2,3.5-0.7,7.3-4.2,8.4
	c-0.2,0.1-0.5,0.1-0.8,0.2c1.2,1.9,0.1,4.7-1.8,5.9s-4.4,1.2-6.6,1s-4.5-0.7-6.8-0.4c-3.3,0.5-6.5,2.8-9.7,1.8
	c-1.2-0.5-2.3-1.1-3.4-1.8c-2.2-1.2-4.8-1.5-7.3-2c-4.2-0.9-8.2-2.6-11.7-5c-2.4-1.4-4.2-3.5-5.4-6c-2.2-5.6,1.5-12.9-2.4-17.4
	c-2.3-2.6-6.8-2.7-9.3-0.4c-1.3,1.1-1.4,3.5-2.8,4.4C755.1,146.7,753.2,146.8,751.3,146.7z"/>
<path class="st2" d="M702.4,433.4c-1.4-1.1-2.6-2.5-3.6-4c-1-1.5-1.4-3.4-1.1-5.2c-0.8,4.6,0.7,9.3,3.9,12.7
	c2.5,2.6,7.2,5.1,10.9,4.2C711.9,438.3,704.7,435.4,702.4,433.4z"/>
<path class="st1" d="M900.2,272.6c0,0-21.3-12.4-49.5,3s-32.8,105.8-32.8,105.8s11.5,92.1-32.9,71.6c0,0-81-25.2-89.1-19.6
	c0,0-7.7,0,7.7,3.4s74.7,22.2,74.7,22.2s19.2,6.7,27.3,0s31.1,0.9,34.1-45.2c2-29,5.5-57.9,10.7-86.6l7.9-23.5L900.2,272.6z"/>
<path class="st5" d="M902.8,415c0,0-9.4-93.4,6-127.1c13.4-29.4-38.4-15.6-51.9-11.6c-2.1,0.6-3.9,1.9-5.2,3.7
	c-8,11.3-36.7,56.3-28.2,116.7c0,0,3.4,53.7-17.9,62.3l65.7-21.2c5.3-1.7,10.7-3.2,16.2-4.4C894.4,431.8,905.8,427.3,902.8,415z"/>
<ellipse class="st17" cx="1075" cy="580.9" rx="97.4" ry="15.7"/>
<rect x="1071.8" y="281.1" class="st18" width="6.3" height="141.2"/>
<path class="st1" d="M1117.5,421.9l-0.4,6.4l-0.6,9l-0.2,3.7l-0.6,9l-0.2,3.7l-0.6,9l-6.3,102.1c-0.6,9.1-8.1,16.2-17.3,16.2h-32.9
	c-9.1,0-16.7-7.1-17.2-16.2l-6.3-102.1l-0.5-9l-0.2-3.7l-0.6-9l-0.2-3.7l-0.5-9l-0.4-6.4c-0.3-5,3.5-9.2,8.5-9.5c0.2,0,0.3,0,0.5,0
	h67.2c5,0,9,4.1,8.9,9.1C1117.5,421.5,1117.5,421.7,1117.5,421.9z"/>
<polygon class="st19" points="1117.1,428.2 1116.6,437.2 1033.4,437.2 1032.8,428.2 "/>
<polygon class="st19" points="1116.3,440.9 1115.8,449.9 1034.2,449.9 1033.6,440.9 "/>
<polygon class="st19" points="1115.5,453.7 1115,462.6 1035,462.6 1034.4,453.7 "/>
<path class="st20" d="M1023.2,334c36.5,26.4,51.7,67.7,51.7,67.7s-44-1.5-80.5-27.9c-36.5-26.4-51.7-67.7-51.7-67.7
	S986.7,307.6,1023.2,334z"/>
<path class="st21" d="M942.7,306.1c0,0,45.7,25.4,60.3,46.3c14.7,21,71.9,49.3,71.9,49.3"/>
<path class="st20" d="M1046.8,280.8c19.9,14.4,28.2,36.9,28.2,36.9s-24-0.8-43.8-15.2c-19.8-14.4-28.1-36.9-28.1-36.9
	S1026.9,266.4,1046.8,280.8z"/>
<path class="st21" d="M1003,265.6c0,0,24.9,13.8,32.8,25.2c8,11.4,39.2,26.9,39.2,26.9"/>
<path class="st20" d="M1103.9,316.5c-22.8,25.1-27.7,57.9-27.7,57.9s32.2-7.9,55-33s27.7-57.9,27.7-57.9S1126.7,291.4,1103.9,316.5z
	"/>
<path class="st21" d="M1158.9,283.5c0,0-29.7,25.7-37.3,43.4c-7.6,17.7-45.4,47.4-45.4,47.4"/>
<path class="st22" d="M642,256.1v2.3h-67.6v-1.9c1.9-0.7,3.6-1.6,5.2-2.8c5.8-4.2,9.3-10.9,9.3-18.1c0-1.8-0.2-3.7-0.7-5.5
	c-1.7-6.5-6.2-11.9-12.3-14.7h65.6c-6.1,2.8-10.6,8.2-12.3,14.7c-0.5,1.8-0.7,3.6-0.7,5.5c0,7.2,3.4,13.9,9.3,18.1
	C639.1,254.7,640.5,255.5,642,256.1z"/>
<path class="st2" d="M641.5,215.5c-6.1,2.8-10.6,8.2-12.3,14.7h-41.1c-1.7-6.5-6.2-11.9-12.3-14.7H641.5z"/>
<path class="st22" d="M497,203.9v12.8c0,7.1,5.2,12.8,11.6,12.8h198.9c6.4,0,11.6-5.8,11.6-12.8v-12.8H497z"/>
<path class="st2" d="M642,256.1v2.3h-67.6v-1.9c1.9-0.7,3.6-1.6,5.2-2.8h58.2C639.1,254.7,640.5,255.5,642,256.1z"/>
<path class="st22" d="M555.4,254.5h105.5c1.9,0,3.4,1.5,3.4,3.4v0c0,1.9-1.5,3.4-3.4,3.4H555.4c-1.9,0-3.4-1.5-3.4-3.4v0
	C552,256,553.5,254.5,555.4,254.5z"/>
<path class="st23" d="M719,63.2c0-6.4-5.2-11.6-11.6-11.6c0,0,0,0,0,0H508.5c-6.4,0-11.6,5.2-11.6,11.6c0,0,0,0,0,0v143.1H719V63.2z
	"/>
<path class="st24" d="M713,68.4v123c0,3.1-2.5,5.7-5.7,5.7c0,0,0,0,0,0H508.7c-3.1,0-5.7-2.6-5.7-5.7c0,0,0,0,0,0v-123
	c0-1,0.3-2,0.8-2.9c1-1.8,2.9-2.9,4.9-2.9h198.6C710.4,62.7,713,65.3,713,68.4C713,68.4,713,68.4,713,68.4z"/>
<circle class="st5" cx="608" cy="57.2" r="2.7"/>
<circle class="st5" cx="608" cy="217.2" r="6.6"/>
<path class="st25" d="M713,68.4H503c0-3.1,2.6-5.7,5.7-5.7l0,0h198.5C710.4,62.7,713,65.3,713,68.4C713,68.4,713,68.4,713,68.4z"/>
<circle class="st26" cx="508.7" cy="65.6" r="1.4"/>
<circle class="st26" cx="513" cy="65.6" r="1.4"/>
<circle class="st26" cx="517.3" cy="65.6" r="1.4"/>
</svg>
