<?xml version="1.0" encoding="iso-8859-1"?>
<!-- Generator: Adobe Illustrator 19.0.0, SVG Export Plug-In . SVG Version: 6.00 Build 0)  -->
<svg version="1.1" id="Layer_1" xmlns="http://www.w3.org/2000/svg" xmlns:xlink="http://www.w3.org/1999/xlink" x="0px" y="0px"
	 viewBox="0 0 960 560" style="enable-background:new 0 0 960 560;" xml:space="preserve">
<g id="XMLID_32_">
	<g id="XMLID_15_">
		<defs>
			<polygon id="XMLID_17_" points="477.313,130.766 477.965,180.071 386.128,246.15 386.493,196.667 			"/>
		</defs>
		<clipPath id="XMLID_52_">
			<use xlink:href="#XMLID_17_"  style="overflow:visible;"/>
		</clipPath>
		<polygon id="XMLID_16_" style="clip-path:url(#XMLID_52_);fill-rule:evenodd;clip-rule:evenodd;fill:#0E151E;" points="
			477.028,307.195 477.679,257.89 385.842,191.812 389.596,241.443 		"/>
	</g>
	<polygon id="XMLID_14_" style="fill-rule:evenodd;clip-rule:evenodd;fill:#09384F;" points="477.313,130.766 477.965,180.071 
		389.108,244.128 386.493,196.667 	"/>
	<polygon id="XMLID_2_" style="fill-rule:evenodd;clip-rule:evenodd;fill:#064163;" points="486.362,311.519 525.506,311.927 
		573.909,130.333 534.507,130.587 	"/>
	<polygon id="XMLID_18_" style="fill-rule:evenodd;clip-rule:evenodd;fill:#078AA7;" points="477.594,311.953 478.245,262.648 
		386.408,196.569 386.091,246.219 	"/>
</g>
<g id="XMLID_3_">
	<path id="XMLID_7_" style="fill:#09384F;" d="M273.211,369.473h-9.76v19.887c0,1.811,0.354,3.095,1.064,3.853
		c0.708,0.76,1.798,1.15,3.266,1.175c1.467,0.024,3.276-0.012,5.43-0.11V400c-5.577,0.733-9.662,0.281-12.255-1.357
		c-2.594-1.639-3.889-4.733-3.889-9.283v-19.887h-7.266v-6.164h7.266v-8.365l6.384-1.908v10.273h9.76V369.473z"/>
	<path id="XMLID_19_" style="fill:#09384F;" d="M299.042,362.354c4.305,0,7.753,1.358,10.347,4.073
		c2.593,2.715,3.89,6.396,3.89,11.044V400h-6.385v-22.161c0-2.983-0.807-5.295-2.421-6.935c-1.615-1.639-3.842-2.459-6.679-2.459
		c-3.181,0-5.749,0.991-7.705,2.973c-1.957,1.981-2.935,5.026-2.935,9.136V400h-6.385v-51.367h6.385v19.96
		C289.746,364.435,293.709,362.354,299.042,362.354z"/>
	<path id="XMLID_21_" style="fill:#09384F;" d="M326.633,384.59c0.636,3.278,2.14,5.822,4.514,7.632
		c2.372,1.811,5.295,2.715,8.769,2.715c4.844,0,8.366-1.785,10.567-5.356l5.431,3.082c-3.572,5.528-8.953,8.292-16.145,8.292
		c-5.822,0-10.556-1.822-14.199-5.467c-3.646-3.645-5.467-8.256-5.467-13.833c0-5.527,1.785-10.127,5.356-13.796
		c3.57-3.669,8.193-5.504,13.869-5.504c5.381,0,9.771,1.896,13.172,5.688c3.4,3.792,5.101,8.354,5.101,13.686
		c0,0.931-0.073,1.884-0.22,2.862H326.633z M339.328,368.372c-3.425,0-6.263,0.967-8.512,2.898
		c-2.251,1.934-3.646,4.514-4.184,7.742h24.51c-0.538-3.473-1.907-6.115-4.109-7.925
		C344.832,369.278,342.264,368.372,339.328,368.372z"/>
	<path id="XMLID_24_" style="fill:#078AA7;" d="M400.528,400.954c-5.528,0-10.126-1.846-13.796-5.54
		c-3.669-3.693-5.503-8.28-5.503-13.76c0-5.479,1.834-10.064,5.503-13.759c3.67-3.693,8.268-5.541,13.796-5.541
		c3.62,0,6.873,0.869,9.76,2.605c2.887,1.737,5.039,4.073,6.458,7.008l-5.356,3.082c-0.931-1.956-2.361-3.522-4.293-4.696
		c-1.934-1.174-4.122-1.761-6.568-1.761c-3.669,0-6.739,1.247-9.209,3.742c-2.471,2.495-3.706,5.603-3.706,9.319
		c0,3.669,1.235,6.751,3.706,9.246c2.47,2.495,5.54,3.743,9.209,3.743c2.446,0,4.647-0.575,6.604-1.725
		c1.956-1.149,3.449-2.703,4.477-4.66l5.431,3.155c-1.566,2.888-3.816,5.199-6.752,6.935
		C407.354,400.085,404.1,400.954,400.528,400.954z"/>
	<path id="XMLID_26_" style="fill:#078AA7;" d="M453.804,395.377c-3.768,3.719-8.341,5.577-13.723,5.577s-9.943-1.858-13.686-5.577
		c-3.742-3.718-5.613-8.292-5.613-13.723c0-5.43,1.871-10.004,5.613-13.723c3.742-3.717,8.304-5.577,13.686-5.577
		s9.955,1.86,13.723,5.577c3.767,3.719,5.65,8.293,5.65,13.723C459.454,387.085,457.57,391.659,453.804,395.377z M440.081,394.717
		c3.67,0,6.752-1.248,9.246-3.743c2.495-2.495,3.743-5.601,3.743-9.319c0-3.717-1.248-6.824-3.743-9.319
		c-2.494-2.495-5.576-3.742-9.246-3.742c-3.62,0-6.678,1.247-9.173,3.742c-2.494,2.495-3.742,5.603-3.742,9.319
		c0,3.719,1.248,6.824,3.742,9.319C433.403,393.469,436.461,394.717,440.081,394.717z"/>
	<path id="XMLID_36_" style="fill:#078AA7;" d="M497.393,348.633h6.384V400h-6.384v-6.311c-3.181,4.843-7.804,7.265-13.87,7.265
		c-5.137,0-9.516-1.871-13.135-5.614c-3.621-3.742-5.431-8.304-5.431-13.686c0-5.381,1.81-9.943,5.431-13.686
		c3.619-3.742,7.998-5.614,13.135-5.614c6.066,0,10.689,2.422,13.87,7.266V348.633z M484.33,394.79c3.718,0,6.824-1.259,9.319-3.779
		c2.495-2.52,3.743-5.638,3.743-9.356c0-3.717-1.248-6.836-3.743-9.356c-2.495-2.519-5.602-3.778-9.319-3.778
		c-3.669,0-6.751,1.26-9.246,3.778c-2.495,2.521-3.742,5.64-3.742,9.356c0,3.719,1.247,6.837,3.742,9.356
		C477.579,393.531,480.661,394.79,484.33,394.79z"/>
	<path id="XMLID_39_" style="fill:#078AA7;" d="M517.938,384.59c0.636,3.278,2.14,5.822,4.514,7.632
		c2.372,1.811,5.295,2.715,8.769,2.715c4.844,0,8.366-1.785,10.567-5.356l5.431,3.082c-3.572,5.528-8.953,8.292-16.145,8.292
		c-5.822,0-10.556-1.822-14.199-5.467c-3.646-3.645-5.467-8.256-5.467-13.833c0-5.527,1.785-10.127,5.356-13.796
		c3.57-3.669,8.193-5.504,13.869-5.504c5.381,0,9.771,1.896,13.172,5.688c3.4,3.792,5.101,8.354,5.101,13.686
		c0,0.931-0.073,1.884-0.22,2.862H517.938z M530.634,368.372c-3.425,0-6.263,0.967-8.512,2.898
		c-2.251,1.934-3.646,4.514-4.184,7.742h24.51c-0.538-3.473-1.907-6.115-4.109-7.925
		C536.138,369.278,533.569,368.372,530.634,368.372z"/>
	<path id="XMLID_42_" style="fill:#064163;" d="M574.59,400v-53.569h6.384V400H574.59z"/>
	<path id="XMLID_44_" style="fill:#064163;" d="M621.113,363.309h6.384V400h-6.384v-6.311c-3.181,4.843-7.804,7.265-13.87,7.265
		c-5.137,0-9.516-1.871-13.135-5.614c-3.621-3.742-5.431-8.304-5.431-13.686c0-5.381,1.81-9.943,5.431-13.686
		c3.619-3.742,7.998-5.614,13.135-5.614c6.066,0,10.689,2.422,13.87,7.266V363.309z M608.051,394.79
		c3.718,0,6.824-1.259,9.319-3.779c2.495-2.52,3.743-5.638,3.743-9.356c0-3.717-1.248-6.836-3.743-9.356
		c-2.495-2.519-5.602-3.778-9.319-3.778c-3.669,0-6.751,1.26-9.246,3.778c-2.495,2.521-3.742,5.64-3.742,9.356
		c0,3.719,1.247,6.837,3.742,9.356C601.3,393.531,604.382,394.79,608.051,394.79z"/>
	<path id="XMLID_47_" style="fill:#064163;" d="M657.437,362.354c5.137,0,9.515,1.872,13.136,5.614
		c3.62,3.742,5.431,8.305,5.431,13.686c0,5.382-1.811,9.943-5.431,13.686c-3.621,3.743-7.999,5.614-13.136,5.614
		c-6.066,0-10.689-2.422-13.869-7.265V400h-6.384v-51.367h6.384v20.987C646.747,364.776,651.37,362.354,657.437,362.354z
		 M656.63,394.79c3.669,0,6.751-1.259,9.246-3.779c2.495-2.52,3.742-5.638,3.742-9.356c0-3.717-1.247-6.836-3.742-9.356
		c-2.495-2.519-5.577-3.778-9.246-3.778c-3.719,0-6.825,1.26-9.32,3.778c-2.494,2.521-3.742,5.64-3.742,9.356
		c0,3.719,1.248,6.837,3.742,9.356C649.805,393.531,652.911,394.79,656.63,394.79z"/>
	<path id="XMLID_50_" style="fill:#064163;" d="M688.331,373.106c0,1.388,0.721,2.5,2.162,3.337
		c1.439,0.837,3.157,1.549,5.151,2.134c1.993,0.586,3.998,1.175,6.015,1.767c2.018,0.593,3.725,1.703,5.122,3.331
		s2.098,3.719,2.098,6.271c0,3.328-1.284,5.993-3.853,7.999c-2.568,2.007-5.859,3.009-9.87,3.009c-3.572,0-6.63-0.783-9.173-2.349
		c-2.544-1.564-4.354-3.644-5.431-6.237l5.504-3.155c0.587,1.761,1.688,3.155,3.302,4.183c1.615,1.027,3.547,1.541,5.798,1.541
		c2.103,0,3.84-0.402,5.21-1.208c1.369-0.807,2.055-2.064,2.055-3.773c0-1.416-0.711-2.552-2.131-3.407s-3.128-1.581-5.12-2.18
		c-1.994-0.599-3.999-1.2-6.016-1.806s-3.734-1.69-5.152-3.256c-1.42-1.565-2.128-3.571-2.128-6.018c0-3.18,1.234-5.798,3.706-7.853
		c2.47-2.055,5.564-3.082,9.282-3.082c2.983,0,5.638,0.674,7.962,2.019c2.323,1.346,4.073,3.217,5.247,5.613l-5.356,3.009
		c-1.321-3.13-3.939-4.696-7.853-4.696c-1.811,0-3.352,0.419-4.623,1.256C688.967,370.392,688.331,371.576,688.331,373.106z"/>
</g>
</svg>
