<?xml version="1.0" encoding="utf-8"?>
<!-- Generator: Adobe Illustrator 19.0.0, SVG Export Plug-In . SVG Version: 6.00 Build 0)  -->
<svg version="1.1" id="b759170a-51c3-4e2f-999d-77dec9fd6d11"
	 xmlns="http://www.w3.org/2000/svg" xmlns:xlink="http://www.w3.org/1999/xlink" x="0px" y="0px" viewBox="90 -113.3 1140.6 787.3"
	 style="enable-background:new 90 -113.3 1140.6 787.3;" xml:space="preserve">
<style type="text/css">
	.st0{opacity:0.1;fill:#078AA7;enable-background:new    ;}
	.st1{fill:#2B3133;}
	.st2{fill:#078AA7;}
	.st3{fill:#AFC0E0;}
	.st4{opacity:0.2;fill:#078AA7;enable-background:new    ;}
	.st5{opacity:0.1;enable-background:new    ;}
	.st6{fill:#E3E8F4;}
	.st7{fill:#064163;}
	.st8{opacity:0.2;fill:#FFFFFF;enable-background:new    ;}
	.st9{fill:none;stroke:#535461;stroke-width:2;stroke-miterlimit:10;}
	.st10{fill:#EB5D1E;}
	.st11{opacity:0.25;enable-background:new    ;}
	.st12{fill:url(#SVGID_1_);}
	.st13{fill:#497689;}
	.st14{opacity:5.000000e-002;enable-background:new    ;}
	.st15{fill:#EE8E9E;}
	.st16{fill:#30374E;}
	.st17{fill:#F3F3F3;}
	.st18{fill:#525B60;}
	.st19{opacity:0.1;fill:#525B60;enable-background:new    ;}
	.st20{opacity:0.1;}
</style>
<title>maker launch</title>
<path class="st0" d="M98.9,303.2c20.2-32.9,65.7-27.2,98.1-10s64.5,42.8,100.1,37.9c30-4.2,54.6-30.3,67.9-60.5s17.2-64.2,20.9-97.5
	c4.7-41.9,9.4-83.8,14.1-125.7c1.7-15.3,3.8-31.5,12.4-43.6c11.4-16,32.3-20.9,50.1-16.1s33.1,17.7,46.1,32.1
	c41.7,46.1,65.4,108.4,101.9,159.6c7.4,10.4,15.8,20.8,26.9,25.8c16,7.3,34.4,2.1,50-6c51-26.3,85.3-79.9,118.9-130
	c16.4-24.3,36.3-50.4,63.6-53c28.7-2.8,53.6,21.6,70.4,47.5c54.1,83.2,65.7,196.9,131,269.5c8.1,9,17.1,17.3,27.4,22.9
	c3.4,1.8,6.9,3.4,10.6,4.7c57,19.7,76,98.9,33.8,145.9c-0.9,1-1.8,2-2.8,3c-6.3,6.6-13.3,12.9-21.8,14.8c-7.9,1.8-16-0.3-23.8-2.5
	c-49.9-14.5-99.1-36.8-150.7-35.7c-50.2,1-97.7,24.2-147.3,32.5c-33.3,5.6-67.3,4.5-101,3.3c-112.3-4-224.6-8.7-336.9-14.1
	c-55.7-2.6-111.5-5-167.2-7.8c-42.9-2.2-70.3-7.1-75.2-57C112.2,399.4,73,345.4,98.9,303.2z"/>
<ellipse class="st1" cx="880" cy="638.3" rx="270" ry="37.7"/>
<path class="st2" d="M238.8,475.5c0,0,13.2-3,21.9,5.9c0,0-5.6,5-18.6-0.5L238.8,475.5z"/>
<path class="st2" d="M237.4,475.4c0,0-7.8,11.1-2.9,22.5c0,0,6.8-3.3,6.6-17.5L237.4,475.4z"/>
<path class="st2" d="M228.6,458.7c0,0,4.7-10.2,27,2.1c0,0-2.4,6.8-11.9,6.9C234.2,467.8,231.4,463.7,228.6,458.7z"/>
<path class="st2" d="M227.2,458c0,0-11.2-0.5-10.5,24.9c0,0,7.1,1,11.6-7.4C232.8,467.1,230.3,462.9,227.2,458z"/>
<path class="st2" d="M219.4,438.3c0,0,5-17.7,28.5-6.9c0,0-4.1,16.2-25.8,12.6L219.4,438.3z"/>
<path class="st2" d="M210.7,412.9c0,0,10.6-18.2,32.5-3.4c0,0-6.2,16.9-30.3,9.5L210.7,412.9z"/>
<path class="st2" d="M206.5,388.5c0,0,12.6-17,34.4-2.3c0,0-12.1,14.9-34.1,6.4L206.5,388.5z"/>
<path class="st2" d="M202.8,364.8c0,0,12.8-17.7,33.6-3.2c0,0-14.7,15.8-33.3,7.1L202.8,364.8z"/>
<path class="st2" d="M202.6,343.5c0,0,13.1-22.5,32.7-9.2c0,0-14.4,19.6-32.4,13.3L202.6,343.5z"/>
<path class="st2" d="M204.4,318.5c0,0,14-22.4,33.1-7.2c0,0-17.1,19.8-32.9,11.1L204.4,318.5z"/>
<path class="st2" d="M208,296.1c0,0,17-21.3,33.6-14.4c0,0-17.7,22.6-34,19.8L208,296.1z"/>
<path class="st2" d="M213,274.7c0,0,19.5-26,32.4-18.6c0,0-14.3,20.1-33.6,23.3L213,274.7z"/>
<path class="st2" d="M220.6,249.7c0,0,17.2-21.3,31-17.2c0,0-14.4,21.9-33.1,23.7L220.6,249.7z"/>
<path class="st2" d="M227.5,226.4c0,0,19.2-20.6,28.3-17.8c0,0-13.4,22.4-28.9,22.1L227.5,226.4z"/>
<path class="st2" d="M234.2,204.9c0,0,16.1-24.1,25.8-23c0,0-9.3,21.2-25.7,25.3L234.2,204.9z"/>
<path class="st2" d="M241.2,176c0,0,14.4-18.7,22.8-19.2c0,0-10.7,24.3-23.1,25L241.2,176z"/>
<path class="st2" d="M245.2,156.8l12.6-37.7c0,0,3,33.1-14,44.6L245.2,156.8z"/>
<path class="st2" d="M248.6,115.9c0,0,0.4-30.8-1.3-33.2c0,0,12.5,24.7,2.1,46.7L248.6,115.9z"/>
<path class="st2" d="M218.7,437.9c0,0-16.3-8.6-24.8,15.7c0,0,14.5,8.3,27-9.8L218.7,437.9z"/>
<path class="st2" d="M210.1,412c0,0-19.7-7.5-27.3,17.9c0,0,15.5,9.2,29.5-11.8L210.1,412z"/>
<path class="st2" d="M205.7,390c0,0-14.8-15.1-34.4,2.3c0,0,13.9,13.2,34.6,1.8L205.7,390z"/>
<path class="st2" d="M202.3,364.8c0,0-15-15.8-33.7,1.4c0,0,16.7,13.7,34,2.5L202.3,364.8z"/>
<path class="st2" d="M202.7,344.1c0,0-11.4-23.5-31.8-11.7c0,0,12.9,20.6,31.2,15.7L202.7,344.1z"/>
<path class="st2" d="M205.5,318.4c0,0-11.3-23.9-32.1-11.1c0,0,14.7,21.6,31.3,14.9L205.5,318.4z"/>
<path class="st2" d="M210.1,296.1c0,0-5.6-26.7-23.6-27.9c0,0,5.7,28.1,21.5,32.9L210.1,296.1z"/>
<path class="st2" d="M213.5,274.7c0,0-3.7-32.3-18.5-32.5c0,0,2.1,24.6,17.1,37.1L213.5,274.7z"/>
<path class="st2" d="M222.1,248.7c0,0-6.2-26.7-20.5-29c0,0,3.5,26,19.5,35.7L222.1,248.7z"/>
<path class="st2" d="M229.2,226.5c0,0-2-28.1-10.9-31.6c0,0-3.6,25.8,8.6,35.4L229.2,226.5z"/>
<path class="st2" d="M234.9,204.5c0,0-3.1-28.9-12.3-32.3c0,0-1.5,23.1,11.1,34.3L234.9,204.5z"/>
<path class="st2" d="M242.6,178.2c0,0-1.6-23.5-8.4-28.6c0,0-4.6,26.2,5.4,33.6L242.6,178.2z"/>
<path class="st2" d="M244.4,155.6l-8.8-38.7c0,0-6.2,32.6,9.6,45.8L244.4,155.6z"/>
<path class="st2" d="M243,116.6c0,0-17.6-25.3-17.5-28.2c0,0,3.5,27.5,24.4,39.9L243,116.6z"/>
<path class="st2" d="M244.4,108.8c0,0-17.5-36.4-24.4-39c0,0,22.1,9.4,25.6,37.8L244.4,108.8z"/>
<path class="st2" d="M240.9,182l-1-0.3c9.9-42,11.2-68.5,3.9-74.6l0.7-0.8C252.2,112.8,251,138.9,240.9,182z"/>
<path class="st2" d="M212.6,280.6l-1.6-0.4c1.1-3.9,2.3-7.8,3.5-11.7c11-33.7,20.1-65,25.8-88.9l1.3-0.8
	c-5.6,24-14.5,56.4-25.5,90.2C214.9,272.9,213.7,276.8,212.6,280.6z"/>
<path class="st2" d="M259.7,505c-0.2-0.2-22.2-21.9-39.1-60.2c-9.9-22.5-16.2-46.3-18.6-70.8c-3-30.5,1.1-65.1,10-96.9l1.3,1.3
	c-20,71.3-6.2,130.3,9.2,165.4c16.7,38,38.5,59.5,38.7,59.7L259.7,505z"/>
<path class="st2" d="M283.9,390.8c0,0,8-1.8,13.2,3.5c0,0-3.4,3-11.3-0.3L283.9,390.8z"/>
<path class="st2" d="M283,390.8c0,0-4.7,6.7-1.7,13.6c0,0,4.1-2,4-10.5L283,390.8z"/>
<path class="st2" d="M277.7,380.7c0,0,2.8-6.1,16.3,1.3c0,0-1.5,4.1-7.2,4.2C281.1,386.2,279.4,383.7,277.7,380.7z"/>
<path class="st2" d="M276.9,380.3c0,0-6.8-0.3-6.4,15.1c0,0,4.3,0.6,7-4.5C280.2,385.8,278.7,383.2,276.9,380.3z"/>
<path class="st2" d="M272.1,368.3c0,0,3.1-10.7,17.2-4.2c0,0-2.5,9.8-15.6,7.6L272.1,368.3z"/>
<path class="st2" d="M266.9,353c0,0,6.4-11,19.6-2.1c0,0-3.8,10.2-18.3,5.8L266.9,353z"/>
<path class="st2" d="M264.4,338.2c0,0,7.6-10.3,20.8-1.4c0,0-7.3,9-20.6,3.9L264.4,338.2z"/>
<path class="st2" d="M262.1,323.9c0,0,7.7-10.7,20.3-1.9c0,0-8.9,9.6-20.1,4.3L262.1,323.9z"/>
<path class="st2" d="M262,311c0,0,8-13.6,19.7-5.5c0,0-8.7,11.8-19.6,8L262,311z"/>
<path class="st2" d="M263.1,295.9c0,0,8.5-13.5,20-4.4c0,0-10.3,11.9-19.9,6.7L263.1,295.9z"/>
<path class="st2" d="M265.3,282.4c0,0,10.3-12.9,20.3-8.7c0,0-10.7,13.7-20.5,11.9L265.3,282.4z"/>
<path class="st2" d="M268.3,269.4c0,0,11.8-15.7,19.6-11.3c0,0-8.6,12.1-20.3,14.1L268.3,269.4z"/>
<path class="st2" d="M272.9,254.4c0,0,10.4-12.9,18.8-10.4c0,0-8.7,13.2-20,14.3L272.9,254.4z"/>
<path class="st2" d="M277.1,240.3c0,0,11.6-12.5,17.1-10.8c0,0-8.1,13.5-17.5,13.4L277.1,240.3z"/>
<path class="st2" d="M281.1,227.2c0,0,9.7-14.6,15.6-13.9c0,0-5.6,12.8-15.5,15.3L281.1,227.2z"/>
<path class="st2" d="M285.4,209.7c0,0,8.7-11.3,13.8-11.6c0,0-6.5,14.7-14,15.1L285.4,209.7z"/>
<path class="st2" d="M287.8,198.1l7.6-22.8c0,0,1.8,20-8.5,27L287.8,198.1z"/>
<path class="st2" d="M289.8,173.4c0,0,0.3-18.6-0.8-20c0,0,7.5,15,1.3,28.2L289.8,173.4z"/>
<path class="st2" d="M271.8,368.1c0,0-9.8-5.2-15,9.5c0,0,8.8,5,16.3-5.9L271.8,368.1z"/>
<path class="st2" d="M266.6,352.4c0,0-11.9-4.5-16.5,10.8c0,0,9.4,5.5,17.8-7.1L266.6,352.4z"/>
<path class="st2" d="M263.9,339.2c0,0-8.9-9.1-20.8,1.4c0,0,8.4,8,20.9,1.1L263.9,339.2z"/>
<path class="st2" d="M261.8,323.9c0,0-9.1-9.5-20.4,0.8c0,0,10.1,8.3,20.5,1.5L261.8,323.9z"/>
<path class="st2" d="M262,311.4c0,0-6.9-14.2-19.3-7.1c0,0,7.8,12.5,18.9,9.5L262,311.4z"/>
<path class="st2" d="M263.8,295.8c0,0-6.9-14.5-19.4-6.7c0,0,8.9,13.1,19,9L263.8,295.8z"/>
<path class="st2" d="M266.5,282.4c0,0-3.4-16.1-14.2-16.9c0,0,3.4,17,13,19.9L266.5,282.4z"/>
<path class="st2" d="M268.6,269.4c0,0-2.2-19.5-11.2-19.6c0,0,1.3,14.9,10.3,22.5L268.6,269.4z"/>
<path class="st2" d="M273.8,253.7c0,0-3.8-16.1-12.4-17.5c0,0,2.1,15.7,11.8,21.6L273.8,253.7z"/>
<path class="st2" d="M278.1,240.3c0,0-1.2-17-6.6-19.1c0,0-2.2,15.6,5.2,21.4L278.1,240.3z"/>
<path class="st2" d="M281.5,227c0,0-1.9-17.4-7.4-19.5c0,0-0.9,14,6.7,20.7L281.5,227z"/>
<path class="st2" d="M286.2,211.1c0,0-1-14.2-5-17.3c0,0-2.8,15.8,3.2,20.3L286.2,211.1z"/>
<path class="st2" d="M287.3,197.5l-5.3-23.4c0,0-3.8,19.7,5.8,27.7L287.3,197.5z"/>
<path class="st2" d="M286.4,173.9c0,0-10.6-15.3-10.6-17.1c0,0,2.1,16.6,14.8,24.1L286.4,173.9z"/>
<path class="st2" d="M287.2,169.1c0,0-10.6-22-14.8-23.5c0,0,13.4,5.7,15.5,22.9L287.2,169.1z"/>
<path class="st2" d="M285.2,213.4l-0.6-0.1c6-25.4,6.8-41.4,2.4-45.1l0.4-0.5C292,171.5,291.3,187.4,285.2,213.4z"/>
<path class="st2" d="M268.1,273l-0.9-0.3c0.7-2.3,1.4-4.7,2.1-7c6.6-20.4,12.2-39.3,15.6-53.8l0.8-0.5c-3.4,14.5-8.8,34.1-15.4,54.5
	C269.4,268.4,268.7,270.7,268.1,273z"/>
<path class="st2" d="M296.5,408.7c-0.1-0.1-13.4-13.2-23.6-36.4c-6-13.6-9.8-28-11.3-42.8c-1.8-18.5,0.7-39.4,6.1-58.6l0.8,0.8
	c-12.1,43.1-3.7,78.8,5.6,100c10.1,23,23.3,35.9,23.4,36.1L296.5,408.7z"/>
<path class="st3" d="M326.6,458.7c-2.6,0.5-5.1,1.2-7.5,2.1c-53.9,21.5-53,162.5-53,162.5h-15.9c0,0-5-60.5-26.8-146.8
	c-19.6-77.7,60.9-147.3,77.2-160.5c1.8-1.5,2.9-2.3,2.9-2.3C384.6,343.6,326.6,458.7,326.6,458.7z"/>
<path class="st4" d="M309.4,316.3c-1.9-0.9-3.8-1.7-5.9-2.4c0,0-1,0.8-2.9,2.3c-16.4,13.2-96.9,82.8-77.2,160.5
	c21.8,86.3,26.7,146.8,26.7,146.8h8.9c0,0-4.9-60.5-26.8-146.8C212.8,399.2,292.5,329.9,309.4,316.3z"/>
<path class="st3" d="M594.1,476.5c-21.8,86.3-26.8,146.8-26.8,146.8h-15.9c0,0,1-147.4-56.7-163.8c-1.3-0.4-2.5-0.7-3.8-0.9
	c0,0-58-115.1,23.1-144.9c0,0,0.8,0.6,2.3,1.8C531.4,327.6,614,398,594.1,476.5z"/>
<path class="st5" d="M326.6,458.7c-2.6,0.5-5.1,1.2-7.5,2.1c-9.8-47.7-15.9-96.1-18.5-144.8c1.8-1.5,2.9-2.3,2.9-2.3
	C384.6,343.6,326.6,458.7,326.6,458.7z"/>
<path class="st5" d="M516.4,315.6c-3.3,48.5-10.5,96.7-21.6,144c-1.3-0.4-2.5-0.7-3.8-0.9c0,0-58-115.1,23.1-144.9
	C514.1,313.8,514.9,314.4,516.4,315.6z"/>
<path class="st6" d="M486.7,480.5c-5.6,22.1-12.2,44.8-19.7,68c-11.3,34.9-35.7,37.2-122,0c0,0-8.6-24.3-18.1-65.6
	C306,392,281,219,334.3,41.2c15.9-53.4,38.5-104.7,67.2-152.5c0,0,45.6,52.3,79,152.4S535.2,289.2,486.7,480.5z"/>
<circle class="st3" cx="408.8" cy="182.3" r="71.6"/>
<path class="st7" d="M459.6,182.4c0,28.1-22.7,50.8-50.8,50.8c-11.7,0-23.1-4.1-32.2-11.5c-3.6-3-6.8-6.5-9.5-10.3
	c-1.2-1.7-2.3-3.5-3.3-5.4c-3.8-7.3-5.8-15.4-5.8-23.6c0-0.4,0-0.8,0-1.2c0.5-22.3,15.5-41.6,37-47.7c4-1.1,8.1-1.7,12.2-1.9h1.5
	C436.8,131.6,459.5,154.3,459.6,182.4L459.6,182.4z"/>
<path class="st2" d="M480.5,41.2c-81.3,38.9-146.2,0-146.2,0c15.9-53.4,38.5-104.7,67.2-152.4C401.5-111.3,447.1-59,480.5,41.2z"/>
<path class="st2" d="M486.7,480.5c-3.8,15-8,30.2-12.7,45.7c-2.2,7.4-4.5,14.8-7,22.3c-3.7,11.3-35.7,37.2-122,0c0,0-2.8-7.9-7-22.3
	c-3.1-10.9-7-25.5-11.1-43.3c0,0,32.1,13.7,77.7,13.7C432.7,496.7,460.6,491.2,486.7,480.5z"/>
<path class="st6" d="M474,526.2c-2.2,7.4-4.5,14.8-7,22.3c-3.7,11.3-35.7,37.2-122,0c0,0-2.8-7.9-7-22.3
	C338,526.2,425.9,551.5,474,526.2z"/>
<path class="st8" d="M395,133.4l-0.1,0.1L358,181.1c0,0.4,0,0.8,0,1.2c0,8.2,2,16.3,5.8,23.6l43.5-74.4L395,133.4z"/>
<path class="st8" d="M406.8,176.4l-30.2,45.3c-3.6-3-6.8-6.5-9.5-10.3l36-38.6L406.8,176.4z"/>
<path class="st8" d="M364.3,548.5c0,0-8.6-24.3-18.1-65.6C325.3,392,300.3,219,353.6,41.2c14.3-48.1,34.1-94.4,58.9-138.1
	c-6.8-9.5-11-14.3-11-14.3c-28.7,47.8-51.3,99-67.2,152.4C281,218.9,306,392,326.9,482.8c9.5,41.3,18.1,65.6,18.1,65.6
	c34.1,14.7,60.3,17.8,79.5,16.1C408,563.4,388.1,558.7,364.3,548.5z"/>
<path class="st9" d="M1027.1,617.7c0,0,46.7-58.2,43.6-116.4c-1.5-24.4,5.1-48.7,18.5-69.1c6.5-9.7,13.9-18.7,22-27"/>
<path class="st2" d="M1109.5,368.5c-3.3,8.1,1.7,37.7,1.7,37.7s24.4-17.5,27.7-25.6c3.3-8.1-0.5-17.4-8.6-20.7
	C1122.1,356.5,1112.8,360.4,1109.5,368.5L1109.5,368.5L1109.5,368.5z"/>
<path class="st2" d="M1066.7,403.5c1.6,8.6,21.9,30.7,21.9,30.7s11-27.9,9.3-36.5c-1.6-8.6-9.9-14.3-18.5-12.7
	C1070.8,386.5,1065.1,394.8,1066.7,403.5L1066.7,403.5z"/>
<path class="st2" d="M1036.2,480.7c5.7,6.6,34.4,15.5,34.4,15.5s-4.6-29.6-10.4-36.3c-5.9-6.5-15.9-7-22.4-1.1
	C1031.5,464.5,1030.8,474.1,1036.2,480.7L1036.2,480.7z"/>
<path class="st10" d="M1026.2,544.3c4.5,7.5,31.3,21.1,31.3,21.1s0.4-30-4.1-37.5s-14.3-9.9-21.8-5.4
	C1024.1,527,1021.7,536.8,1026.2,544.3z"/>
<path class="st2" d="M1118.8,448.4c-8.1,3.3-37.7-2-37.7-2s17.7-24.2,25.9-27.5c8.1-3.3,17.4,0.7,20.6,8.9
	C1130.8,436,1126.9,445.2,1118.8,448.4L1118.8,448.4z"/>
<path class="st2" d="M1106.2,522.7c-8.7,0.7-35.3-13.2-35.3-13.2s24.1-17.8,32.9-18.5c8.8-0.5,16.3,6.2,16.7,15
	C1121,514.5,1114.7,521.9,1106.2,522.7z"/>
<path class="st10" d="M1084.1,593.2c-8.5,2.1-37-7.1-37-7.1s20.8-21.6,29.3-23.7c8.5-2.1,17.1,3,19.3,11.5
	C1097.7,582.4,1092.6,591,1084.1,593.2z"/>
<path class="st11" d="M1109.5,368.5c-3.3,8.1,1.7,37.7,1.7,37.7s24.4-17.5,27.7-25.6c3.3-8.1-0.5-17.4-8.6-20.7
	C1122.1,356.5,1112.8,360.4,1109.5,368.5L1109.5,368.5L1109.5,368.5z"/>
<path class="st11" d="M1066.7,403.5c1.6,8.6,21.9,30.7,21.9,30.7s11-27.9,9.3-36.5c-1.6-8.6-9.9-14.3-18.5-12.7
	C1070.8,386.5,1065.1,394.8,1066.7,403.5L1066.7,403.5z"/>
<path class="st11" d="M1001.4,344.6c5.7,6.6,34.4,15.5,34.4,15.5s-4.6-29.6-10.4-36.3c-5.9-6.5-15.9-7-22.4-1.1
	C996.7,328.4,996,338,1001.4,344.6L1001.4,344.6z"/>
<path class="st11" d="M1026.2,544.3c4.5,7.5,31.3,21.1,31.3,21.1s0.4-30-4.1-37.5s-14.3-9.9-21.8-5.4
	C1024.1,527,1021.7,536.8,1026.2,544.3z"/>
<path class="st11" d="M1118.8,448.4c-8.1,3.3-37.7-2-37.7-2s17.7-24.2,25.9-27.5c8.1-3.3,17.4,0.7,20.6,8.9
	C1130.8,436,1126.9,445.2,1118.8,448.4L1118.8,448.4z"/>
<path class="st11" d="M1106.2,522.7c-8.7,0.7-35.3-13.2-35.3-13.2s24.1-17.8,32.9-18.5c8.8-0.5,16.3,6.2,16.7,15
	C1121,514.5,1114.7,521.9,1106.2,522.7z"/>
<path class="st11" d="M1084.1,593.2c-8.5,2.1-37-7.1-37-7.1s20.8-21.6,29.3-23.7c8.5-2.1,17.1,3,19.3,11.5
	C1097.7,582.4,1092.6,591,1084.1,593.2z"/>
<path class="st9" d="M1027.5,615.2c0,0,66.3-34.2,87.1-88.7c8.6-22.9,24.3-42.4,44.9-55.6c9.8-6.2,20.2-11.5,31-15.8"/>
<path class="st2" d="M1203.8,420.8c-6.3,6.1-13.8,35.1-13.8,35.1s29.4-6.1,35.7-12.2c6.4-6.1,6.6-16.1,0.5-22.5
	C1220.1,414.8,1210.2,414.7,1203.8,420.8L1203.8,420.8L1203.8,420.8z"/>
<path class="st2" d="M1150.5,435.4c-2,8.5,7.6,37,7.6,37s21.3-21.1,23.3-29.7c2-8.5-3.3-17.1-11.8-19.1
	C1161.1,421.7,1152.6,427,1150.5,435.4L1150.5,435.4z"/>
<path class="st2" d="M1091.3,493.7c2.6,8.4,25.2,28.1,25.2,28.1s7.8-29,5.2-37.3c-2.6-8.4-11.4-13.1-19.8-10.6
	C1093.5,476.4,1088.8,485.3,1091.3,493.7L1091.3,493.7z"/>
<path class="st10" d="M1056.4,547.8c1.1,8.7,20.1,31.9,20.1,31.9s12.6-27.2,11.4-35.9c-1.1-8.7-9.1-14.9-17.8-13.8
	C1061.5,531,1055.3,539,1056.4,547.8L1056.4,547.8z"/>
<path class="st2" d="M1179.9,497.7c-8.8-0.3-33.6-17.1-33.6-17.1s26-14.9,34.8-14.6s15.6,7.7,15.3,16.5
	C1196,491.1,1188.7,498,1179.9,497.7L1179.9,497.7z"/>
<path class="st2" d="M1138.3,560.5c-8.3-2.9-26.9-26.4-26.9-26.4s29.3-6.5,37.6-3.5c8.3,2.9,12.6,12,9.7,20.3
	C1155.7,559,1146.6,563.4,1138.3,560.5L1138.3,560.5z"/>
<path class="st2" d="M1089.5,616c-8.6-1.5-31-21.5-31-21.5s27.8-11.3,36.4-9.8s14.4,9.7,12.9,18.3
	C1106.4,611.7,1098.2,617.5,1089.5,616L1089.5,616L1089.5,616z"/>
<linearGradient id="SVGID_1_" gradientUnits="userSpaceOnUse" x1="942.6578" y1="723.5541" x2="942.6578" y2="225.9702" gradientTransform="matrix(1 0 0 1 -29.72 -54.9)">
	<stop  offset="0" style="stop-color:#808080;stop-opacity:0.25"/>
	<stop  offset="0.54" style="stop-color:#808080;stop-opacity:0.12"/>
	<stop  offset="1" style="stop-color:#808080;stop-opacity:0.1"/>
</linearGradient>
<path class="st12" d="M1121.8,583l-51.4-74.5c0,0-1-18.5-4.3-22.8s-0.7-13.9-0.7-13.9s3.6-5.3,0.5-5.8s-0.5-12.2-0.5-12.2l-0.2-18.7
	c0,0,2.9-18,0.5-22.3c-1.4-2.4-1.3-5.4,0.2-7.7c0,0,2.9-10.3,0-12.9c-2.9-2.6-2.2-18.7-1.4-31.4c0.8-12.7-5.1-19.9-5.1-21.8
	c0-1.9-19-20.6-19-22.3c0-1.7-12-8.6-19.2-10.5c-7.2-1.9-10.8-3.3-10.6-4.3s-11.3-4.8-11.3-4.8s-10.1-0.7-13.9-5.8
	c-3.8-5-15.6-6.5-15.9-6.5c-0.1-0.3-0.2-0.7-0.2-1c-0.1-0.3-0.2-0.7-0.2-1.1c0.9-1.5,1.8-3.1,2.5-4.7c0.2-0.5,0.5-1,0.7-1.5
	c4.2-0.2,8.5-1.1,11.8-3.7c3.4-2.9,5.5-7,5.8-11.5c0.2-4.4-0.8-8.8-2.8-12.8c-2.1-4.3-5.2-8.8-4.1-13.5c0.5-2,1.7-3.8,2.3-5.8
	c1.2-3.8,0.1-7.9-1.7-11.4s-4.3-6.5-6.4-9.9c-2.6-4.3-4.3-9-5.1-14c-0.4-2.6-0.6-5.3-1.9-7.6c-1.1-1.7-2.5-3.1-4.2-4.3
	c-7.5-5.4-16.6-8.1-25.8-7.8c-6.5,0.2-13.1,2-19.5,1.2c-3.9-0.5-7.6-1.9-11.4-3c-8.1-2.4-17.3-3.4-24.4,1.3s-9.8,13.7-14.6,20.8
	c-4.2,6.3-10.4,11.5-13.6,18.2c0-0.1,0.1-0.3,0.1-0.4c-0.8,1.5-1.4,3.2-1.8,4.8c-1.2,5.2-0.2,10.7,1.1,15.9c0.7,2.7,1.5,5.6,3.9,7.1
	s5.6,1.2,8.4,1.6c-0.1,0.5-0.2,0.9-0.3,1.4c-5.9,28,10.7,55.9,38.1,64c0,0.5,0,1,0,1.5c0,1.4-0.1,2.8-0.3,4.1l0,0
	c0,0-24.2-5-30.6-1.6c-6.5,3.4-19.2,6-21.1,7.9c-1.9,1.9-6.7,0.5-11,11.8s-4.8,22.8-10.3,28s-8.4,8.9-8.6,12.7
	c-0.2,3.8,0.7,4.8-1.5,6s-5.3,6.2-4.3,8.2c0,0,1.2,4.8-2.6,7.2s-3.4,7.2-3.4,7.2s-1.4,5.3-4.8,6.5s-5.5,9.1-5.5,9.1l-10.9,12.6
	l-21.6-23.9c-3.4-3.7-9.1-4-12.8-0.7l-10.6,9.6c-4.1,1-7.8,3.2-10.6,6.3c-2.3,2.4-4.2,5.1-5.5,8.2l-5.8,5.2
	c-3.7,4.6-4.3,11-1.5,16.3l13.8,15.3l0.1,0.1c-5.2,0.7-9.8,2.3-13.4,5.5c-20.7,18.2-20.9,35-17.8,42.7s29.3,37.2,29.3,37.2
	s15.2,19.8,37.2,30.3l0,0l-0.2,0.2c-0.4,0.5-0.9,1-1.3,1.5l-0.4,0.5l-0.3,0.5l-0.4,0.6c-0.1,0.2-0.2,0.3-0.3,0.5s-0.3,0.5-0.4,0.7
	l-0.3,0.5c-0.2,0.3-0.3,0.6-0.5,0.9l-0.2,0.3c-0.2,0.4-0.4,0.8-0.6,1.3c-0.1,0.2-0.1,0.3-0.2,0.5c-0.1,0.3-0.3,0.6-0.4,1
	s-0.2,0.4-0.2,0.6s-0.2,0.6-0.3,0.9s-0.1,0.5-0.2,0.7s-0.2,0.7-0.3,1.1s-0.1,0.4-0.2,0.7c-0.1,0.5-0.3,1.1-0.4,1.7
	c0,0.2-0.1,0.5-0.1,0.7c-0.1,0.4-0.1,0.8-0.2,1.2c0,0.3-0.1,0.6-0.1,0.9s-0.1,0.8-0.2,1.2l-0.1,0.9c0,0.4-0.1,0.9-0.1,1.4
	c0,0.3,0,0.6,0,0.8c0,0.8-0.1,1.5-0.1,2.3c-0.5,28,1.2,32.1,1.2,32.1s3.4,8.9,12.8,9.6c1.4,0.1,2.8,0,4.1-0.2
	c12.5-2.2,41.8-7.2,52.1-5.3c6.2,1.2,17.7-0.5,25.9-2.1l2.2-0.4l1.5,4.8l4.8-1.3l4,2.3l2.5,1.5c4.7,16.1,24,10.6,24,10.6l4.5,2.6
	l46.4,1.2c0,0,10,6,16.4,7.9c0.8,0.2,1.5,0.4,2.3,0.5c4.3,0.3,8.6,0.4,12.9,0.2c3.5-0.1,6.3-0.2,6.3-0.2s-0.5-12.6-1.2-26.7
	c17.7-0.7,33.4-1.8,42.9-3.5c24.8-4.3,35.1-26.9,38.9-38.9c1.1,4.9,2,9.9,2.4,14.9c1,4.4,2.3,8.7,3.8,12.9c1.4,3.4,3.1,6.6,5.3,9.6
	c18.3-6.2,7.2-15.6,3.4-19.7s2.7-7.4,2.7-7.4s5-3.3,4.6-6.5s-0.7-6.5,15.6-6.2S1121.8,583,1121.8,583z M868.1,430.1
	c0.2,1.4,2.5,16.1,4.5,20c0.4,0.8,0.6,3.7,0.5,7.9c-9.7-0.8-19.8-1.2-19.8-1.2c0.3,0.4,0.5,0.8,0.5,1.2l-1.5-0.3l-2.2-0.5
	L868.1,430.1L868.1,430.1z M832.8,486.3l16.8,2.7l1.4,0.2c-0.5,2.6-0.8,5.3-0.9,7.9c0,0.3,0.4,0.5,0.9,0.9c-0.2,1.3-0.3,2.7-0.3,4
	c0.3,1.3,8.1,4.2,17.1,6.6c-0.1,0.5-0.2,0.9-0.4,1.4l0,0c-7.9-4.2-20.4-6.1-21.9-9.2c-1.5-3.1-44-18-44-18s-1.5-0.8-4.2-2.1
	l11.2,2.1l3.1-0.3C818.6,484.1,825.6,485.4,832.8,486.3L832.8,486.3z"/>
<path class="st7" d="M1067.1,593.5c0,0-6.7,40.2-40.5,46.2s-146.7,4.8-146.7,4.8s-64.5-9.3-87.8-63.8s-38.3-76.2-18.3-77.1
	c20-0.9,127.8,36.4,134,36.9S1073,457.6,1067.1,593.5z"/>
<path class="st13" d="M764.5,638.3c0,0,3.4,8.9,12.6,9.5c1.4,0.1,2.7,0,4.1-0.2c12.4-2.1,41.4-7.1,51.7-5.2
	c6.2,1.2,17.5-0.5,25.7-2.1c5.4-1,9.3-2,9.3-2s-9.5-31.7-10.7-32.6s-42.8-26-42.8-26l-33-2.4h-0.1c0,0-6.1,0.4-11.2,6.6
	c-3.5,4.2-6.5,11.1-6.7,22.5C762.8,634.2,764.5,638.3,764.5,638.3z"/>
<path class="st14" d="M764.5,638.3c0,0,3.4,8.9,12.6,9.5c-3.3-4.2-6.3-8.5-9-13.1l0.2-23.1c-1.5-17.3,6.6-28.4,13-34.3h-0.1
	c0,0-17.4,1.2-17.9,29S764.5,638.3,764.5,638.3z"/>
<path class="st5" d="M907.6,587.8l30.7-24l48.3-47.6c0,0-5.2-0.3-13.1-0.6c-2,1.3-7.5,5.2-7.7,10c-0.2,5.8-13.1,0.4-19.7,3.7
	s-39.3,45.1-45,44.8s-10.2-2.9-12.6,1.2c0,0.1-0.1,0.2-0.2,0.3L907.6,587.8z"/>
<path class="st5" d="M770,583.9c1.1,0.5,2.2,1,3.3,1.5c23.3,10,52.1,31,54.3,34.8c1.3,2.3,18,12.5,30.9,20.1c5.4-1,9.3-2,9.3-2
	s-9.5-31.7-10.7-32.6s-42.8-26-42.8-26l-33-2.4h-0.1C781.2,577.3,775.1,577.7,770,583.9z"/>
<path class="st7" d="M705.2,515.7c3.1,7.6,29,36.9,29,36.9S750.6,574,774,584s52.1,31,54.3,34.8c1.4,2.5,20,13.7,33.1,21.3l2.9,1.7
	l6.5,3.8l3.4,2c0,0,8-6.4,15.9-12.8s15.6-12.8,15.8-13.1c0.2-0.7,3.3-8.8,2.6-9.3c-0.4-0.3-2-3.5-5-7.4c-3.2-4.2-7.4-7.7-12.1-10
	c-11-5-15.7-16.4-15.7-16.4s-1-0.8-2.6-1.8c-2.8-1.8-7.3-4.3-10.7-4.8c-5.3-0.7-15-11.4-15-11.4s-6.7-4.3-9.3-9.8
	c-2.5-5.2-39.4-30.6-42.8-32.9l89.5,57.5l21.4,13.8l30.7-24l48.3-47.6c0,0-6.5-0.3-16-0.7c-23.5-1-65.2-2.6-70.5-1.4
	c-4.3,1-8.7,1.3-13.1,0.8c0,0-11.9,0.5-19.7-3.6c-7.8-4.1-20.3-6.1-21.7-9.2c-1.4-3.1-43.6-17.8-43.6-17.8s-57.4-30.5-77.8-12.4
	C702.4,491.4,702.1,508,705.2,515.7z"/>
<path class="st15" d="M890.2,340.9l7.4,24.5l9.5,55.2l35,2.4l10.1-16.8l10.1-16.8c0,0,6.3-22.3,10.8-43.9c4-19.1,6.6-37.6,2.3-39.7
	c-3.9-1.8-6.4-8.2-8-15.1c-0.2-0.8-0.4-1.7-0.6-2.6c-1.2-5.9-1.9-11.8-2.3-17.8c0,0-73.3-3.8-63.1,26.4c1.8,5.2,2.8,10.6,2.8,16.1
	c0,1.4-0.1,2.7-0.3,4.1C902.9,326.6,897.9,335.2,890.2,340.9z"/>
<path class="st6" d="M875,336.9l2.6,41.7l6,35.5l6.7,16.4l6,89.9c0,0,57.4,6.6,71.4-0.1c1-0.4,1.9-1.1,2.5-2
	c16.9-25.4,11.3-99.2,11.3-99.2l6.4-47.6l-4.3-24.7l-10.3-1.1l-8-0.8c0,0-1.8,2.2-4.4,5.7c-7.1,9.3-20,27.7-19.2,35.3
	c1.2,10.5-1.4,21.2-5.5,22.9c-4.1,1.7-7.4,4.5-8.1,1.7s-1.4-3.6-0.7-7.6s-3.1-16.4-3.1-16.4s-6.4-14.5-6-20.7s-0.7-13.3-2.6-15
	s-4.5-3.3-2.4-11s-9.4-22.5-9.4-22.5L875,336.9z"/>
<path class="st5" d="M950.8,440.9l2.4,71.2l13.8,7.6c1-0.4,1.9-1.1,2.5-2c16.9-25.5,11.3-99.2,11.3-99.2l6.4-47.6l-4.3-24.7
	l-10.4-1.1c4-19.1,6.6-37.6,2.3-39.7c-3.9-1.8-6.4-8.2-8.1-15.1l0,0l-7.4,50.4c0,0,0.6,4.5,0.8,9.2c0.2,3.5,0.1,7-0.6,8.9
	c-1.7,4.3-0.5,11.9-0.5,11.9c-4.3,7.6-6.4,21.6-7.5,35.1C950.3,423.8,950.8,440.9,950.8,440.9z"/>
<path class="st7" d="M967,289.2c0,0,12,1.5,15.8,6.5s13.8,5.7,13.8,5.7s11.4,3.8,11.2,4.8s3.3,2.4,10.5,4.3c7.1,1.9,19,8.8,19,10.5
	s18.8,20.2,18.8,22.1c0,1.9,5.7,9,5,21.7s-1.4,28.6,1.4,31.2c2.8,2.6,0,12.9,0,12.9c-1.5,2.3-1.6,5.3-0.1,7.6
	c2.4,4.3-0.5,22.2-0.5,22.2l0.2,18.6c0,0-2.6,11.7,0.5,12.1c3.1,0.4-0.5,5.7-0.5,5.7s-2.6,9.5,0.7,13.8s4.3,22.6,4.3,22.6l51,74
	c0,0,0.7,13.6-15.5,13.3s-16,3.1-15.5,6.2s-4.5,6.4-4.5,6.4s-6.4,3.3-2.6,7.4c3.8,4,14.8,13.3-3.3,19.5c-2.1-2.9-3.9-6.1-5.2-9.5
	c-1.5-4.2-2.8-8.5-3.8-12.8c0,0-1.7-18.1-5-20.5s-2.9-13.8-2.9-13.8s4.8-9.3-1.9-13.1s-103.4-57.3-103.4-57.3l-2.4-71.3
	c0,0-1.7-52.6,8.3-70.2c0,0-1.2-7.6,0.5-11.9s-0.2-18.1-0.2-18.1L967,289.2z"/>
<path class="st5" d="M904.6,317.8c0,0-23.9-4.9-30.4-1.6c-6.4,3.3-19,6-21,7.9c-2,1.9-6.7,0.5-11,11.7s-4.8,22.6-10.2,27.8
	c-5.4,5.2-8.3,8.8-8.6,12.6c-0.3,3.8,0.7,4.8-1.4,6s-5.2,6.2-4.3,8.1c0.9,1.9,49.6,43.8,49.6,43.8s2.4,16,4.5,20s-2.4,59.8-7.1,63.6
	s32.1,3.5,32.1,3.5s1.7-36.5,3.1-38.5s-1-41-1-41s-0.2-33.3,2.9-42.1c3.1-8.8,2.7-38.1,2.7-38.1s2.7-17.6,6.1-21.7
	C914,335.6,904.6,317.8,904.6,317.8z"/>
<path class="st7" d="M903.9,317c0,0-23.9-4.9-30.4-1.6c-6.4,3.3-19,6-21,7.9c-2,1.9-6.7,0.5-11,11.7s-4.8,22.6-10.2,27.9
	s-8.3,8.8-8.6,12.6c-0.3,3.8,0.7,4.8-1.4,6s-5.2,6.2-4.3,8.1c0.9,1.9,49.5,43.8,49.5,43.8s2.4,16,4.5,20s-2.4,59.8-7.1,63.6
	c-4.7,3.8,32.1,3.5,32.1,3.5s1.7-36.5,3.1-38.5s-1-41-1-41s-0.2-33.3,2.9-42.1c3.1-8.8,2.8-38.1,2.8-38.1s2.7-17.6,6.1-21.7
	C913.2,334.9,903.9,317,903.9,317z"/>
<path class="st5" d="M901.4,296.9c1.8,5.2,2.8,10.6,2.8,16.1c24.1,7.1,49.9-3.1,62.7-24.8c-1.2-5.9-1.9-11.8-2.3-17.8
	C964.5,270.4,891.2,266.6,901.4,296.9z"/>
<path class="st15" d="M865.2,259.3c0,30.1,24.5,54.5,54.6,54.5s54.5-24.5,54.5-54.6c0-30.1-24.5-54.5-54.6-54.5
	c-25.7,0-48,18.1-53.3,43.2C865.6,251.6,865.2,255.4,865.2,259.3z"/>
<path class="st7" d="M830.2,385.4l-13.1,4c0,0,1.2,4.8-2.6,7.1c-3.8,2.3-3.3,7.2-3.3,7.2s-1.4,5.2-4.8,6.4c-3.4,1.2-5.5,9-5.5,9
	l-11,12.6c0,0-4,3.3-3.3,5s-4.3,2.1-4.3,2.1l2.6,42.4l22.6,4.3l14-1.4l11.4-4.3l10-6l4.6-11.6l20-30.5L830.2,385.4z"/>
<path class="st15" d="M785.7,442.4c0,0-29-41.9-50.7-19.3c-21.7,22.6,8.8,59.3,16,58.1c7.2-1.2,41.2-3.1,41.2-3.1L785.7,442.4z"/>
<path class="st16" d="M725.6,437.4l26.9-24.2c5.2-4.7,13.2-4.3,17.8,0.9l29.8,33.1c4.7,5.2,4.3,13.2-0.9,17.8l-26.9,24.2
	c-5.2,4.7-13.2,4.3-17.8-0.9l-29.8-33.1C720,450,720.5,442.1,725.6,437.4z"/>
<path class="st5" d="M725.6,437.4l26.9-24.2c5.2-4.7,13.2-4.3,17.8,0.9l29.8,33.1c4.7,5.2,4.3,13.2-0.9,17.8l-26.9,24.2
	c-5.2,4.7-13.2,4.3-17.8-0.9l-29.8-33.1C720,450,720.5,442.1,725.6,437.4z"/>
<path class="st17" d="M726.4,434l26.9-24.2c5.2-4.7,13.2-4.3,17.8,0.9l29.8,33.1c4.7,5.2,4.3,13.2-0.9,17.8l-26.9,24.2
	c-5.2,4.7-13.2,4.3-17.8-0.9l-29.8-33.1C720.9,446.6,721.3,438.6,726.4,434z"/>
<circle class="st2" cx="762.5" cy="449.5" r="13.6"/>
<path class="st15" d="M766.9,451.1c-0.2,31.4,64.8,38.1,64.8,38.1l16.6,2.6l7.4,1.2l3.1-30.7c0,0-3.4-0.5-7.7-1.5
	c-6.3-1.5-14.4-4-16.2-7.5C832.1,447.4,767.1,419.7,766.9,451.1z"/>
<path class="st5" d="M866.4,247.9c1.5,0.1,2.9,0.7,4,1.8c1.8,2,1.9,5.4,4.3,6.6c0.9,0.4,1.9,0.5,2.8,0.3c6.3-0.9,10-8,16.1-10
	c3.5-1.1,7.3-0.4,10.7,0.9c1.4,0.4,2.6,1.2,3.5,2.3c2,2.6,0.6,6.5,1.5,9.7c1.3,4.4,6.6,6.2,11.2,6.8s9.7,0.9,12.8,4.3
	c2.2,2.5,2.7,6,2.3,9.2c-0.3,1.1-0.3,2.3,0,3.4c1.3,3.6,7.4,3,9,0.2c1.2-2,0.8-3.8,3.6-4.3c1.9-0.4,4.1,0.4,5.8,1
	c4.8,1.7,10,2.5,15.1,2.3c12.7-27.3,0.9-59.7-26.4-72.5c-27.3-12.7-59.7-0.9-72.5,26.4C868.5,240.1,867.2,243.9,866.4,247.9z"/>
<path class="st18" d="M935.5,281.8c-0.3-1.1-0.3-2.3,0-3.4c0.4-3.2-0.1-6.8-2.3-9.2c-3-3.5-8.2-3.8-12.8-4.4
	c-4.6-0.6-9.8-2.3-11.2-6.8c-0.9-3.2,0.5-7.1-1.5-9.7c-0.9-1.1-2.2-1.8-3.5-2.3c-3.4-1.3-7.2-2-10.7-0.9c-6.1,2-9.7,9.1-16.1,10
	c-1,0.2-1.9,0.1-2.8-0.3c-2.4-1.2-2.5-4.7-4.3-6.6c-2.9-3.1-8.4-1.1-11.9-3.4c-2.3-1.5-3.2-4.4-3.8-7c-1.3-5.2-2.3-10.6-1.1-15.8
	c2.1-8.9,10-14.9,15-22.5c4.7-7,7.3-16,14.4-20.6s16.2-3.6,24.2-1.2c3.7,1.1,7.4,2.5,11.3,3c6.4,0.8,12.9-1,19.4-1.2
	c9.2-0.3,18.1,2.4,25.6,7.8c1.7,1.1,3.1,2.5,4.2,4.2c1.3,2.3,1.5,5,1.8,7.6c0.8,4.9,2.5,9.7,5,13.9c2,3.4,4.5,6.4,6.3,9.9
	s2.9,7.5,1.7,11.3c-0.6,2-1.8,3.7-2.3,5.7c-1.1,4.6,2,9.1,4.1,13.4c2,3.9,3,8.3,2.8,12.7c-0.2,4.4-2.3,8.6-5.7,11.4
	c-3.4,2.6-7.8,3.5-12.1,3.7c-5.2,0.2-10.4-0.6-15.4-2.3c-1.8-0.6-4-1.4-5.8-1c-2.8,0.6-2.4,2.3-3.6,4.3
	C943,284.8,936.8,285.4,935.5,281.8z"/>
<path class="st5" d="M906.2,589.2l30.7-24l48.3-47.6c0,0-6.5-0.3-16-0.7c-1.7,1.8-3.3,4-3.4,6.5c-0.2,5.8-13.1,0.4-19.7,3.7
	s-39.3,45.1-45,44.8s-10.2-2.9-12.6,1.2c-0.1,0.1-0.1,0.2-0.2,0.3c-1,1.1-2.2,1.8-3.6,2.2L906.2,589.2z"/>
<path class="st7" d="M844.3,587.5l15.4,49.3l2.4,7.7l7.3-2l16.2-4.5l72.2-19.8c0,0,13.6-0.2,26-6.9c13.8-7.5,29.3-11.2,44.8-9.8
	c9.5,0.9,20.2-3.2,29-19.5c0,0,20-59-30.5-76s-52.9,9-52.9,9s-0.3,0.1-0.7,0.4c-2,1.3-7.5,5.2-7.7,10c-0.2,5.8-13.1,0.4-19.7,3.7
	s-39.3,45.1-45,44.8s-10.2-2.9-12.6,1.2c0,0.1-0.1,0.2-0.2,0.3c-1.8,2.4-7.1,3-10.6,3.1c-1.9,0.1-3.3,0-3.3,0l-0.5,0.1l-3.7,1
	L844.3,587.5z"/>
<path class="st5" d="M848.2,491.9l7.4,1.2l3.1-30.7c0,0-3.4-0.5-7.7-1.5C852.2,465.1,849.7,481.7,848.2,491.9z"/>
<path class="st5" d="M1042.9,348.4c0,0,22.1-6.4,16.7,56.4c-5.5,62.9-46.4,102.6-46.4,102.6s-47.1,20.7-68.3,17.4s-36.7-4-36.7-4
	c-6.7-3.4-14-5.3-21.4-5.7c-11.9-0.5-36.9-7.9-37.4-10.2c-0.5-2.3,6.2-37.4,3.3-40c0,0,33.3,1.4,36.7,3.8c3.4,2.4,8.1,0.7,11.7,0
	s14.5-10.2,36.2-1.9c0,0,7.4,0.7,10.2-1.2s7.4-0.5,7.4-0.5s4.5-1.7,5.2-2.7s6.4,0,6.4,0c1.3,0.6,2.8,0.1,3.4-1.2
	c0.1-0.2,0.1-0.3,0.2-0.5c0.7-1.9,1.9-3.7,3.3-5.2c0,0,6.4-36.2,18.6-49.8c0,0,3.6-3.1,2.6-6.9S1014.4,340.7,1042.9,348.4z"/>
<path class="st7" d="M1042.4,343.5c0,0,22.1-6.4,16.7,56.4c-5.5,62.9-46.5,102.6-46.5,102.6s-47.1,20.7-68.3,17.4s-36.7-4-36.7-4
	c-6.7-3.4-14-5.3-21.4-5.7c-11.9-0.5-36.9-7.9-37.4-10.2c-0.5-2.3,6.2-37.4,3.3-40c0,0,33.3,1.4,36.7,3.8c3.4,2.4,8.1,0.7,11.7,0
	s14.5-10.2,36.2-1.9c0,0,7.4,0.7,10.2-1.2s7.5-0.5,7.5-0.5s4.5-1.7,5.2-2.6c0.7-0.9,6.4,0,6.4,0c1.3,0.6,2.8,0.1,3.4-1.2
	c0.1-0.2,0.1-0.3,0.2-0.5c0.7-2,1.9-3.7,3.3-5.2c0,0,6.4-36.2,18.6-49.8c0,0,3.6-3.1,2.6-6.9S1013.8,335.9,1042.4,343.5z"/>
<path class="st5" d="M870.4,579.7l31.4,38c0.1-0.1,0.2-0.2,0.2-0.2c0.2-0.7,3.3-8.8,2.6-9.3s-6.2-12.4-17.1-17.4
	c-6.7-3-11.1-8.5-13.5-12.3L870.4,579.7z"/>
<path class="st5" d="M870.8,645.5l3.4,2c0,0,8-6.4,15.9-12.8s15.6-12.8,15.8-13.1c0.2-0.7,3.3-8.8,2.6-9.3c-0.4-0.3-2-3.5-5-7.4
	c-21.3-6-7.8,8.8-5.9,9.5c0,0-26-6-27.4,22.3C870,639.7,870.2,642.7,870.8,645.5z"/>
<path class="st13" d="M897.1,657.5l4.5,2.6l46,1.2c0,0,9.9,6,16.3,7.8c0.8,0.2,1.5,0.4,2.3,0.5c4.3,0.3,8.5,0.4,12.8,0.2
	c3.5-0.1,6.3-0.2,6.3-0.2s-2.2-58-3.8-64c-0.8-2.9-4.6-2.3-8.4-0.8c-2.9,1.2-5.6,2.6-8.2,4.2c0,0-19.5,1.9-22.6,3.6s-11.9-1-17.4,0
	s-15.2-6.5-15.2-6.5c-26.7-8.8-11.7,7.6-9.8,8.3c0,0-25.9-6-27.4,22.3S897.1,657.5,897.1,657.5z"/>
<path class="st18" d="M963.5,635.2c0.5,12,9.8,26.9,15.4,34.8c3.5-0.1,6.3-0.2,6.3-0.2s-2.2-58-3.8-64c-0.8-2.9-4.6-2.3-8.4-0.8
	C968.4,613.5,963.1,625.5,963.5,635.2z"/>
<path class="st19" d="M963.4,633.8c0.5,12,9.8,26.9,15.4,34.8c3.5-0.1,6.3-0.2,6.3-0.2s-2.2-58-3.8-64c-0.8-2.9-4.6-2.3-8.4-0.8
	C968.3,612.1,963,624.1,963.4,633.8z"/>
<path class="st14" d="M954.5,635.5c3.2,11.6,3.1,24.6,8.2,32.4c0.8,0.2,1.5,0.4,2.3,0.5c4.3,0.3,8.5,0.4,12.8,0.2
	c3.5-0.1,6.3-0.2,6.3-0.2s-2.2-58-3.8-64c-0.8-2.9-4.6-2.3-8.4-0.8c-2.9,1.2-5.6,2.6-8.2,4.2C963.5,607.7,950.4,620.7,954.5,635.5z"
	/>
<path class="st5" d="M797.2,519.3c0,0,22.8,7.4,42.2,33.7L797.2,519.3z"/>
<g class="st20">
	<path d="M982.6,233.6c0,0.2-0.1,0.3-0.1,0.5c-0.2,0.7-0.5,1.4-0.8,2C981.9,235.3,982.2,234.4,982.6,233.6z"/>
	<path d="M853.5,222.1c0.4-1.7,1-3.3,1.8-4.8c-0.1,0.4-0.3,0.8-0.3,1.2c-1.2,5.2-0.2,10.6,1.1,15.8c0.7,2.7,1.5,5.6,3.8,7
		c3.5,2.3,9,0.3,11.9,3.4c1.8,2,1.9,5.4,4.3,6.6c0.9,0.4,1.9,0.5,2.8,0.3c6.3-0.9,10-8,16.1-10c3.5-1.1,7.3-0.4,10.7,0.9
		c1.4,0.4,2.6,1.2,3.5,2.3c2,2.6,0.6,6.5,1.5,9.7c1.3,4.4,6.6,6.2,11.2,6.7s9.7,0.9,12.8,4.4c2.2,2.4,2.7,6,2.3,9.2
		c-0.3,1.1-0.3,2.3,0,3.4c1.3,3.6,7.4,3,9,0.2c1.2-2,0.8-3.8,3.6-4.3c1.9-0.4,4.1,0.4,5.8,1c4.9,1.7,10.2,2.5,15.4,2.3
		c4.3-0.2,8.7-1,12.1-3.7c1.5-1.2,2.8-2.8,3.7-4.5c-0.8,3.2-2.6,6-5.1,8.1c-3.4,2.6-7.8,3.5-12.1,3.7c-5.2,0.2-10.4-0.6-15.4-2.3
		c-1.8-0.6-4-1.4-5.8-1c-2.8,0.6-2.4,2.3-3.6,4.3c-1.6,2.8-7.8,3.4-9.1-0.2c-0.3-1.1-0.3-2.3,0-3.4c0.4-3.2-0.1-6.8-2.3-9.2
		c-3.1-3.5-8.2-3.8-12.8-4.4c-4.6-0.6-9.8-2.3-11.2-6.8c-1-3.2,0.5-7.1-1.5-9.7c-1-1.1-2.2-1.8-3.5-2.3c-3.4-1.3-7.2-2-10.7-0.9
		c-6.1,2-9.8,9.1-16.1,10c-1,0.2-1.9,0.1-2.8-0.3c-2.4-1.2-2.5-4.7-4.3-6.6c-2.9-3.1-8.4-1.1-11.9-3.4c-2.3-1.5-3.2-4.4-3.8-7
		C853.3,232.7,852.3,227.3,853.5,222.1z"/>
</g>
<path class="st5" d="M986.3,412.6c-4.4,5.9-9.3,11.3-13.2,17.6c-3.9,6.3-6.6,13.5-5.8,20.8c4-4.1,5.8-9.8,8.3-14.9
	c4.3-8.7,10.6-16.1,16-24.1c1-1.5,7.6-10.3,4.3-10.8C993.2,400.9,987.8,410.6,986.3,412.6z"/>
</svg>
